<svg width="119" height="40" viewBox="0 0 119 40" fill="none" xmlns="http://www.w3.org/2000/svg">
<g clip-path="url(#clip0_0_166)">
<path d="M50.6707 20.5131C50.6707 26.0653 46.3149 30.1566 40.9693 30.1566C35.6237 30.1566 31.2679 26.0653 31.2679 20.5131C31.2679 14.9218 35.6237 10.8696 40.9693 10.8696C46.3149 10.8696 50.6707 14.9218 50.6707 20.5131ZM46.4239 20.5131C46.4239 17.0435 43.8993 14.6696 40.9693 14.6696C38.0393 14.6696 35.5147 17.0435 35.5147 20.5131C35.5147 23.9479 38.0393 26.3566 40.9693 26.3566C43.8993 26.3566 46.4239 23.9435 46.4239 20.5131Z" fill="#A0A8C4"/>
<path d="M71.5995 20.5131C71.5995 26.0653 67.2437 30.1566 61.8981 30.1566C56.5526 30.1566 52.1968 26.0653 52.1968 20.5131C52.1968 14.9262 56.5526 10.8696 61.8981 10.8696C67.2437 10.8696 71.5995 14.9218 71.5995 20.5131ZM67.3527 20.5131C67.3527 17.0435 64.8282 14.6696 61.8981 14.6696C58.9681 14.6696 56.4436 17.0435 56.4436 20.5131C56.4436 23.9479 58.9681 26.3566 61.8981 26.3566C64.8282 26.3566 67.3527 23.9435 67.3527 20.5131Z" fill="#A0A8C4"/>
<path d="M91.6562 11.4522V28.7653C91.6562 35.887 87.4443 38.7957 82.465 38.7957C77.7778 38.7957 74.9568 35.6696 73.8929 33.1131L77.5904 31.5783C78.2487 33.1479 79.862 35.0001 82.4607 35.0001C85.6479 35.0001 87.6231 33.0392 87.6231 29.3479V27.9609H87.4748C86.5243 29.1305 84.6931 30.1522 82.3822 30.1522C77.5467 30.1522 73.1168 25.9522 73.1168 20.5479C73.1168 15.1044 77.5467 10.8696 82.3822 10.8696C84.6887 10.8696 86.52 11.8914 87.4748 13.0262H87.6231V11.4566H91.6562V11.4522ZM87.9239 20.5479C87.9239 17.1522 85.6523 14.6696 82.7615 14.6696C79.8315 14.6696 77.3767 17.1522 77.3767 20.5479C77.3767 23.9088 79.8315 26.3566 82.7615 26.3566C85.6523 26.3566 87.9239 23.9088 87.9239 20.5479Z" fill="#A0A8C4"/>
<path d="M98.3055 1.3042V29.5651H94.1633V1.3042H98.3055Z" fill="#A0A8C4"/>
<path d="M114.447 23.687L117.743 25.8783C116.679 27.4478 114.115 30.1522 109.686 30.1522C104.192 30.1522 100.089 25.9174 100.089 20.5087C100.089 14.7739 104.227 10.8652 109.21 10.8652C114.229 10.8652 116.684 14.8478 117.486 17L117.926 18.0957L104.998 23.4348C105.988 25.3696 107.527 26.3565 109.686 26.3565C111.848 26.3565 113.348 25.2957 114.447 23.687ZM104.301 20.2174L112.943 16.6391C112.467 15.4348 111.037 14.5957 109.354 14.5957C107.196 14.5957 104.192 16.4957 104.301 20.2174Z" fill="#A0A8C4"/>
<path d="M15.5888 18.0046V13.9133H29.4149C29.5501 14.6263 29.6198 15.4698 29.6198 16.3829C29.6198 19.4524 28.7783 23.2481 26.0663 25.9524C23.4284 28.6915 20.058 30.1524 15.5932 30.1524C7.31759 30.1524 0.358765 23.4307 0.358765 15.1785C0.358765 6.92633 7.31759 0.20459 15.5932 0.20459C20.1714 0.20459 23.4328 1.99589 25.8832 4.33068L22.988 7.21763C21.2309 5.57416 18.8502 4.29589 15.5888 4.29589C9.54563 4.29589 4.81921 9.15242 4.81921 15.1785C4.81921 21.2046 9.54563 26.0611 15.5888 26.0611C19.5086 26.0611 21.741 24.4915 23.1711 23.0655C24.3309 21.9089 25.094 20.2568 25.3948 18.0002L15.5888 18.0046Z" fill="#A0A8C4"/>
</g>
<defs>
<clipPath id="clip0_0_166">
<rect width="118.596" height="40" fill="white" transform="translate(0.201782)"/>
</clipPath>
</defs>
</svg>
