<svg width="767" height="918" viewBox="0 0 767 918" fill="none" xmlns="http://www.w3.org/2000/svg">
<path d="M2.04456e-05 58.9911C87.815 168.519 150.241 194.94 192.016 181.253C249.541 162.405 254.069 71.7902 313.991 71.7902C355.536 71.7902 388.289 174.373 455.192 173.116C530.614 171.701 544.922 45.2552 635.438 6.3901C697.469 -20.2401 767 44.9747 767 44.9747V918H0L2.04456e-05 58.9911Z" fill="url(#paint0_linear_0_1593)" fill-opacity="0.3"/>
<path d="M766.5 45.1931V917.5H0.5L0.50002 60.4123C44.0446 114.551 81.3569 148.257 113.021 166.759C144.906 185.391 171.107 188.63 192.172 181.728C206.67 176.978 217.812 167.709 227.298 156.521C235.495 146.854 242.477 135.725 249.322 124.817C250.392 123.11 251.459 121.41 252.527 119.721C268.361 94.6784 284.338 72.2902 313.991 72.2902C324.171 72.2902 333.884 78.5782 343.825 88.1591C351.325 95.387 358.89 104.423 366.833 113.91C369.413 116.991 372.032 120.119 374.702 123.249C396.428 148.716 421.485 174.249 455.201 173.616C474.216 173.259 489.365 165.016 502.789 152.296C516.199 139.59 527.917 122.389 540.071 104.073C540.912 102.805 541.756 101.532 542.602 100.255C566.24 64.5748 592.098 25.5432 635.635 6.84954C666.443 -6.37648 699.16 3.18894 724.251 16.1404C736.787 22.611 747.392 29.9133 754.864 35.5989C758.599 38.4413 761.55 40.8786 763.566 42.6044C764.574 43.4673 765.348 44.1522 765.87 44.6208C766.131 44.8551 766.328 45.0353 766.46 45.1567C766.474 45.1695 766.488 45.1816 766.5 45.1931Z" stroke="url(#paint1_linear_0_1593)" stroke-opacity="0.6" style="mix-blend-mode:overlay"/>
<defs>
<linearGradient id="paint0_linear_0_1593" x1="394.685" y1="19.9452" x2="394.685" y2="805.368" gradientUnits="userSpaceOnUse">
<stop stop-color="#0BD88F"/>
<stop offset="1" stop-color="#4BDFFF" stop-opacity="0"/>
</linearGradient>
<linearGradient id="paint1_linear_0_1593" x1="394.685" y1="19.9452" x2="394.685" y2="496.179" gradientUnits="userSpaceOnUse">
<!-- <stop stop-color="white"/> -->
<stop offset="1" stop-color="white" stop-opacity="0"/>
</linearGradient>
</defs>
</svg>
