<svg width="27" height="24" viewBox="0 0 27 24" fill="none" xmlns="http://www.w3.org/2000/svg">
<path d="M24.1974 19.7647C24.7245 19.765 25.2313 19.9745 25.6128 20.3498C25.9943 20.725 26.2213 21.2374 26.2466 21.7806C26.2719 22.3238 26.0937 22.8562 25.7489 23.2676C25.4041 23.6789 24.9191 23.9376 24.3944 23.9901L24.1974 24H2.30263C1.77549 23.9997 1.26866 23.7902 0.887155 23.415C0.50565 23.0397 0.27872 22.5273 0.253388 21.9841C0.228055 21.4409 0.406262 20.9085 0.751082 20.4971C1.0959 20.0858 1.5809 19.8271 2.10558 19.7746L2.30263 19.7647H24.1974ZM24.1974 9.88235C24.7418 9.88235 25.2639 10.1055 25.6488 10.5026C26.0337 10.8997 26.25 11.4384 26.25 12C26.25 12.5616 26.0337 13.1003 25.6488 13.4974C25.2639 13.8945 24.7418 14.1176 24.1974 14.1176H2.30263C1.75824 14.1176 1.23615 13.8945 0.851202 13.4974C0.466259 13.1003 0.25 12.5616 0.25 12C0.25 11.4384 0.466259 10.8997 0.851202 10.5026C1.23615 10.1055 1.75824 9.88235 2.30263 9.88235H24.1974ZM24.1974 0C24.7418 0 25.2639 0.223109 25.6488 0.620245C26.0337 1.01738 26.25 1.55601 26.25 2.11765C26.25 2.67928 26.0337 3.21791 25.6488 3.61505C25.2639 4.01219 24.7418 4.23529 24.1974 4.23529H2.30263C1.75824 4.23529 1.23615 4.01219 0.851202 3.61505C0.466259 3.21791 0.25 2.67928 0.25 2.11765C0.25 1.55601 0.466259 1.01738 0.851202 0.620245C1.23615 0.223109 1.75824 0 2.30263 0H24.1974Z" fill="white"/>
</svg>
