<svg width="18" height="18" viewBox="0 0 18 18" fill="none" xmlns="http://www.w3.org/2000/svg">
<path d="M17.1 1.8H4.50003C4.02264 1.8 3.5648 1.98964 3.22723 2.32721C2.88967 2.66477 2.70002 3.12261 2.70002 3.6C2.70002 4.07739 2.88967 4.53523 3.22723 4.87279C3.5648 5.21036 4.02264 5.4 4.50003 5.4H17.1V17.1C17.1 17.3387 17.0052 17.5676 16.8364 17.7364C16.6676 17.9052 16.4387 18 16.2 18H4.50003C3.54525 18 2.62957 17.6207 1.95444 16.9456C1.27931 16.2705 0.900024 15.3548 0.900024 14.4V3.6C0.900024 2.64522 1.27931 1.72955 1.95444 1.05442C2.62957 0.379285 3.54525 0 4.50003 0H16.2C16.4387 0 16.6676 0.0948211 16.8364 0.263604C17.0052 0.432387 17.1 0.661305 17.1 0.9V1.8ZM16.2 4.5H4.50003C4.26133 4.5 4.03241 4.40518 3.86363 4.2364C3.69485 4.06761 3.60002 3.83869 3.60002 3.6C3.60002 3.3613 3.69485 3.13239 3.86363 2.9636C4.03241 2.79482 4.26133 2.7 4.50003 2.7H16.2V4.5Z" fill="#F3F5FF"/>
</svg>
