<svg width="337" height="344" viewBox="0 0 337 344" fill="none" xmlns="http://www.w3.org/2000/svg">
<path d="M182.554 183.551C184.225 185.487 188.251 188.174 188.019 189.884C187.788 191.6 183.582 201.405 181.301 204.933C179.02 208.467 173.577 211.069 171.889 210.742C168.863 210.155 166.481 209.743 168.694 207.039C171.906 203.116 173.758 194.366 171.432 190.217C169.106 186.063 182.554 183.545 182.554 183.545V183.551Z" fill="#C7D9FD"/>
<mask id="mask0_0_2995" style="mask-type:luminance" maskUnits="userSpaceOnUse" x="167" y="183" width="22" height="28">
<path d="M182.556 183.551C184.227 185.487 188.252 188.174 188.021 189.884C187.789 191.6 183.583 201.405 181.302 204.933C179.021 208.467 173.579 211.069 171.891 210.742C168.865 210.155 166.482 209.743 168.695 207.039C171.908 203.116 173.76 194.366 171.434 190.217C169.108 186.063 182.556 183.545 182.556 183.545V183.551Z" fill="white"/>
</mask>
<g mask="url(#mask0_0_2995)">
<path d="M192.435 186.034C191.995 186.006 186.067 185.481 186.067 185.481C185.971 189.907 184.368 193.254 183.007 196.33C181.646 199.412 180.483 203.036 179.236 204.662C177.158 207.377 170.688 209.748 167.871 208.986C165.415 208.32 166.487 213.694 166.487 213.694L178.456 212.638L190.725 193.728C190.725 193.728 192.87 186.057 192.43 186.029L192.435 186.034Z" fill="#5684F9"/>
</g>
<path d="M127.258 168.8C127.535 171.12 129.217 175.173 128.156 176.393C127.095 177.612 115.673 183.325 112.111 184.95C108.548 186.576 102.332 185.018 101.282 184.25C100.232 183.483 102.891 181.033 106.702 178.414C110.513 175.794 114.951 172.899 115.323 168.541C115.69 164.177 127.264 168.806 127.264 168.806L127.258 168.8Z" fill="#C7D9FD"/>
<mask id="mask1_0_2995" style="mask-type:luminance" maskUnits="userSpaceOnUse" x="101" y="166" width="28" height="20">
<path d="M127.258 168.8C127.534 171.12 129.217 175.173 128.155 176.393C127.094 177.612 115.672 183.325 112.11 184.95C108.548 186.576 102.332 185.018 101.281 184.25C100.231 183.483 102.891 181.033 106.701 178.414C110.512 175.794 114.95 172.899 115.322 168.541C115.689 164.177 127.263 168.806 127.263 168.806L127.258 168.8Z" fill="white"/>
</mask>
<g mask="url(#mask1_0_2995)">
<path d="M128.942 172.018C126.582 175.405 121.354 177.567 118.729 179.294C116.098 181.022 110.13 184.375 108.21 184.307C106.291 184.233 105.077 182.371 102.649 182.416C100.222 182.461 99.42 184.341 99.42 184.341L109.103 189.382L128.242 180.705C128.242 180.705 133.842 175.8 133.52 175.563C133.199 175.326 128.942 172.018 128.942 172.018Z" fill="#5684F9"/>
</g>
<path d="M153.532 89.0336C151.466 90.6029 136.121 95.7566 120.906 106.341C105.024 117.388 107.864 119.939 108.954 125.251C111.184 136.112 119.155 156.388 117.151 167.175C116.745 169.36 127.263 170.274 127.263 168.806C127.263 167.248 127.404 165.668 127.709 161.203C129.843 130.06 122.69 130.111 125.467 127.938C138.34 117.89 169.307 114.876 180.587 102.858C197.118 85.2516 164.621 80.6172 153.532 89.0393V89.0336Z" fill="url(#paint0_linear_0_2995)"/>
<path d="M155.927 96.829C155.442 103.123 148.046 120.278 141.39 137.579C134.445 155.637 138.228 156.156 142.112 159.938C150.056 167.677 167.45 180.006 171.431 190.228C172.114 191.984 184.128 185.109 182.553 183.556C181.452 182.472 180.069 183.037 177.816 179.17C162.098 152.199 156.21 156.252 157.294 152.894C162.307 137.353 186.245 117.483 188.836 101.209C192.636 77.36 157.373 78.1164 155.933 96.8347L155.927 96.829Z" fill="url(#paint1_linear_0_2995)"/>
<path d="M162.966 30.4064L161.481 41.7413L182.732 36.7286L182.958 30.9935C180.615 28.9501 174.252 28.5098 174.252 28.5098L162.966 30.4064Z" fill="#83A8FA"/>
<path d="M177.121 38.563C161.815 40.6967 158.388 34.8882 158.388 34.8882L151.828 45.8504L147.786 97.1845C147.786 97.1845 160.754 100.346 178.549 98.9344C178.549 98.9344 192.426 36.4349 177.126 38.5686L177.121 38.563Z" fill="#DF6981"/>
<g style="mix-blend-mode:multiply">
<path d="M157.271 39.805C157.271 39.805 143.637 96.1855 147.786 97.179C150.965 97.9411 155.577 98.4773 155.577 98.4773C155.577 98.4773 160.071 84.958 161.534 64.4446C162.64 48.9101 167.733 38.8848 167.733 38.8848C167.733 38.8848 164.407 37.4736 162.674 36.2148C161.353 35.2552 157.271 39.8106 157.271 39.8106V39.805Z" fill="#A9BAD6"/>
</g>
<path d="M162.969 30.406C162.969 30.406 162.235 31.8624 157.159 32.7148C152.355 33.522 150.114 40.3579 148.9 45.156C146.105 56.2199 148.6 73.7358 146.297 85.1891C144.79 92.6629 139.838 95.8861 131.274 99.1149C122.308 102.496 137.185 111.048 137.185 111.048C137.185 111.048 150.554 99.2278 151.762 94.4072C156.499 75.5083 156.634 56.7448 161.484 41.7409C161.761 40.8885 163.94 36.2541 163.94 36.2541C162.427 32.5906 162.969 30.4004 162.969 30.4004V30.406Z" fill="url(#paint2_linear_0_2995)"/>
<path d="M165.934 42.5199L122.473 25.9693C119.757 24.9363 116.29 25.6532 114.732 27.5667L84.9792 64.0832C83.4153 66.0024 84.3525 68.3902 87.0681 69.4232L130.529 85.9738C133.245 87.0068 136.711 86.2899 138.269 84.3763L168.022 47.8599C169.586 45.9407 168.649 43.5529 165.934 42.5199Z" fill="#83A8FA"/>
<path d="M165.537 41.8651L122.076 25.3145C119.36 24.2815 115.894 24.9984 114.335 26.912L84.5822 63.4284C83.0183 65.3476 83.9555 67.7354 86.6711 68.7684L130.132 85.319C132.848 86.352 136.314 85.6351 137.872 83.7215L167.625 47.2051C169.189 45.2859 168.252 42.8981 165.537 41.8651Z" fill="#C7D9FD"/>
<path d="M99.5494 41.0413C98.0928 41.0413 95.8119 44.5919 95.8119 45.6192C95.8119 46.6466 96.0377 49.215 96.0377 49.215C96.9693 52.0713 100.046 50.4625 100.046 48.6054V46.1442C100.046 46.1442 100.882 48.2836 101.503 48.0578C102.124 47.832 102.113 47.3579 101.593 45.8733C101.079 44.383 100.831 43.4686 100.831 43.4686L102.276 41.8033C102.276 41.8033 101.006 41.0356 99.5494 41.0356V41.0413Z" fill="url(#paint3_linear_0_2995)"/>
<path d="M101.503 36.8411C100.82 37.5241 102.835 41.0183 102.835 41.0183L104.089 39.4772C102.096 37.0556 102.18 36.1581 101.497 36.8411H101.503Z" fill="url(#paint4_linear_0_2995)"/>
<g style="mix-blend-mode:multiply">
<path d="M165.7 84.066C164.712 83.0217 166 82.0056 165.7 84.066V84.066Z" fill="#C7D9FD"/>
</g>
<path d="M192.474 42.204C188.358 39.438 188.008 38.8566 186.947 37.4398C185.885 36.0173 182.961 30.999 182.961 30.999C182.961 30.999 179.579 35.7407 171.116 37.468C171.116 37.468 172.511 43.4797 172.178 46.0086C171.698 49.6947 172.025 37.547 159.119 130.365C159.119 130.365 178.523 135.208 182.272 129.027C193.603 110.348 186.857 93.5494 193.739 68.4412C194.986 63.8971 196.308 44.7893 192.468 42.2097L192.474 42.204Z" fill="url(#paint5_linear_0_2995)"/>
<g style="mix-blend-mode:multiply">
<path d="M187.315 51.9866C178.717 55.8251 175.759 74.2499 174.68 76.6489C173.608 79.048 172.473 79.5673 172.399 81.1422C172.326 82.7115 172.687 83.9307 171.044 83.5412C168.843 83.0219 169.972 85.9967 166.816 84.7605C166.285 84.5517 165.929 84.3089 165.704 84.0662C165.658 84.388 165.574 84.7888 165.433 85.2742C164.337 89.0562 161.543 113.115 161.543 113.115C182.319 117.647 180.614 94.4753 181.003 92.5109C181.681 89.0619 186.26 83.3437 186.26 83.3437C186.26 83.3437 190.217 74.8256 193.531 66.4939C197.128 57.4452 188.439 51.4955 187.327 51.9923L187.315 51.9866Z" fill="#C7D9FD"/>
</g>
<path d="M170.694 37.3271C170.694 37.3271 171.845 43.9597 171.981 44.671C172.116 45.3822 171.924 46.6185 171.569 47.77C171.213 48.9216 166.527 76.1635 166.527 76.1635C166.527 76.1635 168.063 84.213 168.61 82.1301C169.158 80.0472 174.2 56.48 175.08 51.8794C175.955 47.2733 177.604 47.9337 174.42 36.644L170.694 37.3271Z" fill="white"/>
<path d="M152.662 64.9187C150.449 62.7285 149.585 63.9873 150.963 65.3477C152.34 66.7081 152.058 67.4871 151.798 67.583C151.539 67.679 149.077 66.1662 148.083 65.184C147.09 64.2018 145.628 63.5131 144.527 63.3607C143.093 63.1575 141.958 64.7041 144.148 64.7606C145.232 64.7888 146.841 66.1831 146.943 66.4597C145.108 65.8613 143.471 65.6638 141.726 66.3129C139.982 66.9621 137.165 69.491 141.151 69.8127C145.136 70.1345 146.254 73.4085 152.939 76.4793C152.939 76.4793 158.331 73.9955 156.772 72.4545C155.214 70.9135 154.875 67.1032 152.662 64.9187Z" fill="url(#paint6_linear_0_2995)"/>
<path style="mix-blend-mode:multiply" d="M143.826 70.6144C147.344 73.5158 151.634 76.0391 153.452 76.7221C153.452 76.7221 155.66 75.3165 156.62 74.0182C151.725 70.112 149.918 70.6821 147.79 70.4507C145.577 70.208 144.442 69.8862 143.826 70.62V70.6144Z" fill="url(#paint7_linear_0_2995)"/>
<path d="M186.87 44.2979C178.272 48.1364 175.313 66.5612 174.235 68.9602C173.157 71.3593 172.028 71.8786 171.954 73.4535C171.881 75.0228 172.242 76.242 170.599 75.8526C168.397 75.3332 158.602 72.1891 155.44 70.9528C152.284 69.7166 149.704 75.8808 153.041 78.8895C156.378 81.9038 166.004 85.6802 171.006 86.9051C176.008 88.1301 177.809 88.322 178.193 86.3576C178.87 82.9086 181.371 84.173 181.219 82.2594C181.061 80.3458 181.14 79.9959 182.416 79.025C183.692 78.054 185.803 75.6493 185.803 75.6493C185.803 75.6493 189.761 67.1313 193.075 58.7995C196.671 49.7509 187.983 43.8012 186.87 44.2979Z" fill="url(#paint8_linear_0_2995)"/>
<path d="M174.238 68.96C173.166 71.359 172.031 71.8783 171.958 73.4532C171.884 75.0225 172.246 76.2418 170.603 75.8523C168.401 75.333 158.605 72.1888 155.444 70.9526C154.456 70.5631 153.519 70.9074 152.807 71.6469C156.065 72.9509 165.025 76.5692 168.051 78.1159C171.777 80.0238 174.216 78.7594 175.503 77.4667C176.79 76.1797 176.926 76.5353 178.134 67.3286C179.342 58.1219 182.521 58.4493 181.369 49.4966C176.892 56.4115 175.035 67.1593 174.233 68.9543L174.238 68.96Z" fill="white"/>
<path style="mix-blend-mode:multiply" d="M174.833 20.9002C174.675 21.4873 174.523 22.7969 175.33 23.2936C177.159 24.4169 177.492 20.6123 177.125 19.6922C176.758 18.7721 175.443 18.6479 174.833 20.9002Z" fill="url(#paint9_linear_0_2995)"/>
<path d="M154.665 15.6563C149.46 9.30585 155.817 5.69315 161.231 2.24416C163.376 0.878113 172.054 -2.5483 174.792 3.30539C177.423 3.18685 179.365 4.70531 179.856 10.5138C180.466 17.7674 177.694 20.4995 176.48 26.3532L159.052 15.2781L154.665 15.6563Z" fill="url(#paint10_linear_0_2995)"/>
<g style="mix-blend-mode:multiply">
<path d="M172.811 21.0808L173.646 20.9679C171.907 17.5923 167.617 11.7837 169.005 7.92267C169.288 7.12675 171.275 4.8293 173.595 3.45761C173.9 2.56008 173.048 1.61739 170.75 2.59959C167.854 3.83581 167.447 5.78892 164.449 9.39033C161.717 12.67 160.915 11.7668 156.387 13.3586C155.484 13.6748 154.756 14.6513 154.366 15.2722C154.462 15.4021 154.558 15.5263 154.665 15.6561L159.052 15.2779L163.281 17.9648L172.816 21.0808H172.811Z" fill="#9EB4E2"/>
</g>
<path d="M170.474 21.9727C173.054 20.9172 174.048 20.5615 174.048 20.5615C174.426 19.7261 174.595 17.7504 176.368 17.4738C179.846 16.9263 178.609 24.5919 176.961 24.3266C174.838 23.9879 177 33.3414 181.172 36.9203C183.758 39.1443 169.102 40.6007 165.799 39.1613C160.08 36.6719 168.295 29.1473 164.947 25.3371C163.71 23.9315 167.408 21.4591 170.479 21.9727H170.474Z" fill="url(#paint11_linear_0_2995)"/>
<path style="mix-blend-mode:multiply" d="M181.18 36.9203C177.008 33.3359 174.845 23.988 176.968 24.3267C178.617 24.5864 179.848 16.9207 176.375 17.4739C174.603 17.7561 174.433 19.7318 174.055 20.5616C174.055 20.5616 173.056 20.9172 170.481 21.9728C170.08 21.9051 169.668 21.8881 169.262 21.9164C166.371 25.1339 164.796 28.2386 168.302 29.1474C173.157 30.4062 174.151 35.7801 174.23 39.5678C178.611 39.1839 182.642 38.1735 181.18 36.9203Z" fill="url(#paint12_linear_0_2995)"/>
<path style="mix-blend-mode:multiply" d="M169.389 37.1742C169.389 37.1742 164.591 36.0621 165.443 29.8472C164.466 33.4429 161.909 37.4677 165.799 39.1611C166.493 39.466 167.69 39.6353 169.124 39.703L169.389 37.1742Z" fill="url(#paint13_linear_0_2995)"/>
<path d="M170.166 18.5179C171.984 22.5258 176.105 23.6096 173.604 26.7932C169.923 31.4728 168.749 31.4897 165.92 31.693C163.154 31.8962 159.693 26.3417 159.304 24.9135C158.53 22.0629 158.835 20.5275 158.53 19.2405C158.186 17.7954 157.525 17.6881 157.683 14.8206C157.683 14.8206 160.218 14.702 162.719 13.0876C164.215 12.1223 165.796 12.4102 167.417 13.6916C169.071 14.9955 168.868 15.6616 170.166 18.5236V18.5179Z" fill="url(#paint14_linear_0_2995)"/>
<path style="mix-blend-mode:multiply" d="M167.412 13.6861C165.792 12.4103 164.211 12.1168 162.715 13.0821C161.168 14.0812 159.61 14.5102 158.644 14.6852C157.718 20.2453 168.248 16.8754 167.327 19.2349C164.95 25.3313 168.344 25.8732 167.502 28.0239C166.932 29.4916 166.13 30.6826 165.289 31.6423C165.498 31.6874 165.707 31.7044 165.91 31.6931C168.739 31.4899 169.919 31.4786 173.594 26.7934C176.095 23.6097 171.974 22.5259 170.156 18.518C168.857 15.6505 169.061 14.99 167.406 13.6861H167.412Z" fill="url(#paint15_linear_0_2995)"/>
<path style="mix-blend-mode:multiply" d="M175.104 20.9002C174.946 21.4873 174.793 22.7969 175.601 23.2936C177.43 24.4169 177.763 20.6123 177.396 19.6922C177.029 18.7721 175.713 18.6479 175.104 20.9002Z" fill="url(#paint16_linear_0_2995)"/>
<path d="M130.077 36.7959L132.177 39.3417L131.223 48.0404L129.122 45.5002L130.077 36.7959Z" fill="#1F2434"/>
<path d="M143.688 42.0739L121.455 57.0496L124.046 34.459L130.076 36.7959L129.122 45.5003L137.658 39.7369L143.688 42.0739Z" fill="#2D3D4F"/>
<path d="M150.211 44.597L113.259 69.406L117.606 31.9639L124.048 34.4589L121.457 57.0495L143.69 42.0738L150.211 44.597Z" fill="#5CBE8A"/>
<path d="M150.211 44.5972L152.311 47.143L115.359 71.952L113.259 69.4062L150.211 44.5972Z" fill="#2C805C"/>
<path d="M224.211 303.234C223.923 305.994 221.992 310.877 223.262 312.265C224.533 313.654 232.098 317.831 236.321 319.57C240.538 321.308 245.354 320.716 246.664 319.378C248.996 316.984 250.87 315.144 247.223 314.1C241.933 312.587 237.185 308.873 236.694 303.73C236.202 298.588 224.222 303.234 224.222 303.234H224.211Z" fill="white"/>
<path d="M249.178 315.302C249.178 315.302 249.161 315.319 249.155 315.325C247.117 317.752 241.522 319.186 237.993 318.046C235.876 317.363 234.843 316.815 231.727 314.913C228.926 313.202 225.815 311.413 223.162 308.246C222.801 309.99 222.631 311.565 223.269 312.26C224.539 313.648 232.105 317.825 236.328 319.564C240.545 321.303 245.361 320.71 246.671 319.372C248.274 317.729 249.663 316.341 249.183 315.302H249.178Z" fill="url(#paint17_linear_0_2995)"/>
<path d="M225.567 304.205C225.522 305.34 235.074 308.269 235.238 305.927C235.419 303.268 236.311 301.665 236.311 301.665L226.289 301.168C225.364 303.465 225.612 303.065 225.567 304.199V304.205Z" fill="#77A9E5"/>
<path d="M243.911 198.787C243.911 198.787 222.904 179.488 223.378 192.804C223.852 206.12 235.623 246.04 234.895 252.882C234.5 256.585 233.489 260.852 231.169 272.515C231 272.701 230.395 279.977 228.871 281.975C227.77 283.415 228.052 284.651 228.323 285.836C228.6 287.022 227.708 287.931 226.477 289.884C225.269 291.809 226.376 294.834 226.291 296.895C226.189 299.344 226.257 301.123 226.28 301.168C227.352 303.477 237.487 304.961 238.548 302.782C239.773 300.27 242.172 293.378 245.136 282.06C250.031 263.347 253.876 252.165 253.221 245.837C252.758 241.389 245.334 214.175 243.906 198.787H243.911Z" fill="#FF6984"/>
<path d="M246.677 247.04C247.09 243.088 239.355 206.894 238.813 194.277L222.452 197.563C225.958 214.672 235.437 247.819 234.895 252.882C234.5 256.585 233.489 260.852 231.169 272.515C230.999 272.701 230.395 279.977 228.871 281.975C227.77 283.415 228.052 284.651 228.323 285.837C228.6 287.022 227.708 287.931 226.477 289.884C225.269 291.809 226.375 294.834 226.291 296.895C226.189 299.345 226.257 301.123 226.279 301.168C227.109 302.963 233.41 304.256 236.679 303.725C240.811 289.602 247.965 258.928 248.574 256.698C249.325 253.938 246.26 250.985 246.666 247.04H246.677Z" fill="url(#paint18_linear_0_2995)"/>
<path d="M168.352 258.25C165.896 258.973 161.057 259.046 160.318 260.616C159.578 262.185 157.794 272.713 157.794 276.918C157.794 281.123 160.956 286.266 162.553 286.909C165.416 288.061 167.64 289.004 167.251 285.532C166.68 280.491 169.87 272.125 174.082 269.896C178.294 267.666 168.352 258.25 168.352 258.25Z" fill="white"/>
<path d="M166.911 287.621C166.911 287.621 166.894 287.615 166.883 287.609C164.099 286.723 159.944 281.214 159.673 277.804C159.509 275.761 160.497 272.08 161.028 268.756C161.502 265.764 161.937 262.484 163.699 259.114C162.084 259.419 160.684 259.831 160.311 260.616C159.572 262.185 157.787 272.713 157.787 276.918C157.787 281.123 160.949 286.266 162.547 286.909C164.512 287.7 166.183 288.394 166.905 287.621H166.911Z" fill="url(#paint19_linear_0_2995)"/>
<path d="M166.484 259.216C165.637 259.622 168.2 267.271 169.843 268.597C171.491 269.924 175.856 267.785 175.856 267.785L170.119 258.544C168.025 258.708 167.33 258.809 166.484 259.216Z" fill="#77A9E5"/>
<path d="M207.476 185.206C200.82 200.295 210.164 229.998 205.946 245.787C205.037 249.196 202.282 242.592 174.426 256.743C170.429 258.775 169.571 257.545 168.058 257.861C165.895 258.313 172.264 270.613 173.788 269.506C182.686 263.066 204.004 262.14 214.884 259.944C220.202 258.871 223.668 260.486 227.626 241.536C231.42 223.377 235.242 209.79 235.874 207.272C239.29 193.77 217.227 163.09 207.471 185.206H207.476Z" fill="url(#paint20_linear_0_2995)"/>
<path d="M226.706 213.978C226.074 222.332 224.053 239.075 221.919 245.019C219.31 252.29 220.603 250.664 215.127 256.958C212.247 260.271 204.304 262.518 215.183 260.322C220.501 259.25 223.968 260.864 227.926 241.914C231.72 223.755 231.725 224.353 232.053 221.779C232.719 216.609 227.502 203.388 226.706 213.978Z" fill="#FF6984"/>
<path d="M234.56 171.545C227.735 172.398 219.887 173.216 215.833 173.786C215.833 173.786 213.908 166.036 212.299 160.487C210.826 155.396 213.101 150.061 210.137 146.719C207.167 143.378 205.502 140.177 202.148 144.569C198.795 148.966 202.893 157.834 205.581 163.908C208.268 169.982 209.166 176.259 210.854 179.285C213.022 183.185 214.287 183.761 218.515 182.31C223.404 180.634 231.184 179.911 237.208 176.253C239.286 174.994 237.276 171.201 234.555 171.54L234.56 171.545Z" fill="url(#paint21_linear_0_2995)"/>
<path d="M214.783 126.63L214.157 132.337L234.447 140.448L234.662 129.006L223.771 125.456C223.771 125.456 217.409 124.953 214.789 126.624L214.783 126.63Z" fill="#29368B"/>
<path d="M245.12 115.651C251.212 110.136 245.459 105.614 240.609 101.403C238.689 99.7322 230.605 95.0583 227.031 100.443C224.445 99.9354 222.294 101.149 220.95 106.828C219.274 113.918 221.611 117.028 221.944 123.006L240.835 114.629L245.12 115.656V115.651Z" fill="#FF6984"/>
<g style="mix-blend-mode:multiply">
<path d="M243.754 113.122C239.509 110.875 238.583 111.649 236.364 107.996C233.931 103.989 233.818 101.996 231.136 100.342C229.008 99.0268 228.02 99.8283 228.189 100.765C230.289 102.464 231.91 105.033 232.073 105.863C232.869 109.887 227.771 115.002 225.547 118.084L226.36 119.676L234.603 117.384L240.841 114.618L245.126 115.645C245.251 115.532 245.363 115.425 245.476 115.312C245.183 114.64 244.607 113.568 243.76 113.116L243.754 113.122Z" fill="#B7CFF5"/>
</g>
<path d="M228.531 119.557C226.137 118.129 225.2 117.632 225.2 117.632C224.946 116.751 225.076 114.77 223.359 114.228C220 113.167 220.085 120.94 221.756 120.923C223.907 120.906 220.384 129.836 215.721 132.766C212.83 134.583 227.125 138.196 230.608 137.265C236.638 135.644 229.62 126.98 233.505 123.706C234.933 122.498 231.642 119.5 228.531 119.557Z" fill="url(#paint22_linear_0_2995)"/>
<path style="mix-blend-mode:multiply" d="M229.752 119.681C229.351 119.596 228.944 119.551 228.538 119.557C226.144 118.129 225.207 117.632 225.207 117.632C224.953 116.751 225.083 114.77 223.366 114.228C220.007 113.167 220.092 120.94 221.763 120.923C223.914 120.906 220.391 129.836 215.728 132.766C214.096 133.787 217.935 135.385 222.214 136.418C222.852 132.681 224.637 127.51 229.627 126.98C233.235 126.596 232.14 123.288 229.752 119.681Z" fill="url(#paint23_linear_0_2995)"/>
<path style="mix-blend-mode:multiply" d="M227.352 134.764L227.239 137.304C228.667 137.451 229.881 137.457 230.615 137.259C234.72 136.158 232.783 131.8 232.348 128.092C232.275 134.374 227.358 134.764 227.358 134.764H227.352Z" fill="url(#paint24_linear_0_2995)"/>
<path d="M229.352 116.181C226.959 119.879 222.719 120.342 224.723 123.864C227.67 129.046 228.833 129.232 231.605 129.853C234.315 130.463 238.561 125.478 239.159 124.124C240.35 121.42 240.271 119.85 240.768 118.62C241.321 117.237 241.993 117.231 242.264 114.369C242.264 114.369 239.774 113.878 237.533 111.908C236.195 110.728 234.586 110.785 232.796 111.807C230.967 112.851 231.069 113.54 229.358 116.181H229.352Z" fill="url(#paint25_linear_0_2995)"/>
<path style="mix-blend-mode:multiply" d="M241.328 114.098C240.402 113.777 238.917 113.127 237.534 111.908C236.196 110.728 234.587 110.785 232.797 111.807C230.968 112.851 231.07 113.54 229.359 116.181C226.965 119.879 222.725 120.342 224.729 123.864C227.676 129.046 228.839 129.227 231.612 129.853C231.809 129.898 232.018 129.91 232.233 129.898C231.544 128.826 230.928 127.527 230.578 125.992C230.065 123.74 233.503 123.706 232.058 117.322C231.499 114.849 241.418 119.743 241.328 114.104V114.098Z" fill="url(#paint26_linear_0_2995)"/>
<path style="mix-blend-mode:multiply" d="M222.292 116.311C221.795 117.169 221.558 120.985 223.54 120.144C224.415 119.771 224.454 118.45 224.387 117.846C224.116 115.526 222.795 115.453 222.298 116.311H222.292Z" fill="url(#paint27_linear_0_2995)"/>
<path d="M219.444 134.984C204.612 130.604 210.134 198.827 210.134 198.827C227.54 202.863 242.162 198.297 242.162 198.297L243.399 145.941L238.526 134.121C238.526 134.121 234.269 139.365 219.438 134.984H219.444Z" fill="white"/>
<g style="mix-blend-mode:multiply">
<path d="M234.094 134.798C232.191 135.786 228.691 136.689 228.691 136.689C228.691 136.689 229.622 155.802 229.233 162.345C228.843 168.887 232.581 184.789 231.903 192.319C231.226 199.849 240.073 211.427 240.073 211.427C240.073 211.427 243.714 209.807 247.322 207.52C250.93 205.24 238.915 139.156 238.915 139.156C238.915 139.156 235.551 134.042 234.1 134.798H234.094Z" fill="#72ABFE"/>
</g>
<path d="M247.641 185.703C247.053 174.024 247.522 157.061 246.399 145.693C245.913 140.759 245.992 136.943 241.357 135.436C236.462 133.839 234.661 129.012 234.661 129.012C234.661 129.012 234.87 131.259 232.832 134.663C232.832 134.663 234.305 139.574 234.452 140.454C237.032 156.023 234.379 174.617 236.27 194.024C236.75 198.974 244.581 217.608 244.581 217.608C244.581 217.608 255.9 216.868 253.625 209.976C250.751 201.277 248.03 193.335 247.646 185.715L247.641 185.703Z" fill="url(#paint28_linear_0_2995)"/>
<path d="M275.193 159.014C272.167 160.544 262.705 164.602 260.559 165.331C258.962 165.872 259.204 164.625 258.984 163.067C258.764 161.509 257.584 161.097 256.286 158.811C254.987 156.519 250.29 138.444 241.358 135.435C240.201 135.046 232.105 141.797 236.548 150.473C240.636 158.461 245.389 166.572 245.389 166.572C245.389 166.572 247.721 168.768 249.082 169.615C250.442 170.462 250.555 170.8 250.583 172.725C250.612 174.644 252.983 173.154 253.988 176.524C254.558 178.443 256.331 178.082 261.197 176.389C266.064 174.695 275.295 170.021 278.332 166.702C281.37 163.383 278.219 157.49 275.188 159.02L275.193 159.014Z" fill="url(#paint29_linear_0_2995)"/>
<path opacity="0.5" d="M275.193 159.014C272.167 160.544 262.704 164.602 260.559 165.331C258.961 165.873 259.204 164.625 258.984 163.067C258.764 161.509 257.584 161.097 256.285 158.811C255.314 157.101 249.239 137.417 243.379 136.582C243.08 145.608 249.211 150.44 251.283 159.494C253.355 168.554 254.416 166.245 255.822 167.408C257.228 168.571 259.78 169.598 263.308 167.346C266.177 165.517 274.764 161.063 277.88 159.454C277.101 158.783 276.141 158.529 275.187 159.008L275.193 159.014Z" fill="#3486FE"/>
<path d="M284.848 155.825C284.989 155.565 286.942 155.108 288.015 155.238C290.194 155.503 289.043 153.725 287.592 153.708C286.474 153.697 285.034 153.561 283.905 154.385C282.776 155.21 280.117 156.344 279.868 156.209C279.625 156.073 279.462 155.26 281.026 154.12C282.589 152.974 281.923 151.603 279.411 153.443C276.899 155.283 275.995 158.997 274.222 160.296C272.45 161.588 277.424 164.851 277.424 164.851C284.498 162.802 281.692 161.351 285.57 160.375C289.376 159.415 289.669 158.557 289.867 157.23C290.144 155.39 286.75 155.497 284.842 155.819L284.848 155.825Z" fill="url(#paint30_linear_0_2995)"/>
<path d="M225.551 134.787C217.427 131.823 214.785 126.63 214.785 126.63C214.785 126.63 211.149 131.168 209.884 132.416C208.625 133.663 208.191 134.183 203.708 136.316C199.525 138.303 198.006 157.406 198.565 162.091C201.653 187.961 201.602 179.855 187.618 209.129C184.496 215.66 206.661 225.968 206.661 225.968C226.252 204.562 223.158 146.805 223.231 143.085C223.276 140.533 225.551 134.787 225.551 134.787Z" fill="url(#paint31_linear_0_2995)"/>
<g style="mix-blend-mode:multiply">
<path d="M203.208 159.398C202.231 172.658 204.964 181.435 205.647 186.019C206.33 190.603 211.755 195.858 208.571 194.695C205.387 193.538 199.848 190.309 199.848 190.309C199.848 190.309 194.92 201.52 194.434 203.913L199.848 193.137C199.848 193.137 209.158 196.168 211.987 197.196C214.815 198.223 219.49 190.016 219.49 190.016V177.811L210.626 153.838L203.213 159.398H203.208Z" fill="#A5BCD9"/>
</g>
<path d="M226.719 181.887C226.155 179.77 223.095 180.73 222.79 179.465C222.485 178.201 221.452 177.168 220.125 176.158C218.798 175.147 219.013 173.939 218.877 172.398C218.742 170.857 213.926 139.771 208.235 137.383C202.544 134.99 201.477 146.59 200.06 151.151C197.92 158.021 207.354 181.413 210.013 184.8C212.672 188.187 233.296 197.614 237.536 199.747C241.776 201.881 241.855 202.197 243.905 202.835C245.954 203.473 250.471 199.465 247.14 196.383C243.809 193.307 227.289 183.998 226.725 181.881L226.719 181.887Z" fill="url(#paint32_linear_0_2995)"/>
<path d="M257.025 202.017C254.558 202.135 255.111 200.504 257.635 199.177C260.159 197.851 258.059 196.62 255.738 197.839C253.418 199.059 252.554 198.483 250.849 198.257C249.144 198.031 246.31 197.286 246.31 197.286C244.012 199.634 243.938 202.135 245.519 203.337C247.094 204.54 250.567 206.25 251.735 207.142C252.91 208.034 259.622 208.22 261.316 207.334C263.01 206.442 263.541 206.244 263.789 204.901C264.111 203.145 259.498 201.898 257.025 202.017Z" fill="url(#paint33_linear_0_2995)"/>
<path opacity="0.5" d="M226.717 181.887C226.152 179.77 223.092 180.73 222.787 179.465C222.483 178.201 221.449 177.168 220.123 176.158C218.796 175.147 219.005 173.939 218.875 172.398C218.796 171.478 217.051 160.053 214.443 150.474L216.746 176.767C216.746 176.767 218.276 179.567 220.603 181.955C222.923 184.343 226.085 183.614 232.967 189.57C238.398 194.266 243.564 196.355 247.025 196.287C243.462 193.115 227.276 183.976 226.717 181.881V181.887Z" fill="#3486FE"/>
<path d="M252.31 198.782C252.31 198.782 250.605 202.598 251.068 201.943C251.531 201.283 259.164 199.674 258.808 197.986C258.447 196.293 256.471 197.727 252.31 198.788V198.782Z" fill="url(#paint34_linear_0_2995)"/>
<path d="M309.181 203.851L284.267 192.979C283.081 192.46 280.845 192.465 279.281 192.996L252.425 202.079C251.741 202.31 251.205 201.644 251.019 201.937C250.957 202.039 251.019 203.095 251.019 203.191C251.008 203.478 251.245 203.749 251.741 203.97L276.656 214.841C277.842 215.361 280.077 215.355 281.641 214.825L308.498 205.742C310.062 205.211 310.367 204.365 309.176 203.845L309.181 203.851Z" fill="url(#paint35_linear_0_2995)"/>
<path d="M309.181 202.603L284.266 191.731C283.081 191.212 280.845 191.218 279.281 191.748L252.424 200.831C250.86 201.362 250.555 202.208 251.747 202.728L276.661 213.6C277.847 214.119 280.083 214.113 281.647 213.583L308.503 204.5C310.067 203.969 310.372 203.123 309.181 202.603Z" fill="#3486FE"/>
<path d="M282.529 198.935L274.49 195.429C274.106 195.26 273.389 195.265 272.881 195.429L264.215 198.359C263.712 198.528 263.611 198.805 263.994 198.968L272.034 202.474C272.418 202.643 273.135 202.638 273.643 202.474L282.309 199.544C282.812 199.375 282.913 199.098 282.529 198.935Z" fill="url(#paint36_linear_0_2995)"/>
<path d="M334.953 171.359L297.612 184.935C296.393 185.375 294.784 186.922 294.01 188.379L280.81 213.464C280.043 214.926 280.404 215.75 281.623 215.304L318.964 201.729C320.184 201.288 321.793 199.742 322.566 198.285L335.766 173.2C336.534 171.738 336.173 170.913 334.953 171.359Z" fill="url(#paint37_linear_0_2995)"/>
<path d="M335.376 171.692L298.035 185.268C296.816 185.709 295.207 187.255 294.433 188.712L281.234 213.797C280.466 215.259 280.827 216.083 282.047 215.637L319.388 202.062C320.607 201.621 322.216 200.075 322.99 198.618L336.189 173.533C336.957 172.071 336.596 171.246 335.376 171.692Z" fill="url(#paint38_linear_0_2995)"/>
<path d="M256.31 60.0995L248.875 82.3402C248.723 82.7974 248.13 82.9103 247.819 82.5377L232.694 64.463C232.356 64.0566 232.638 63.4413 233.163 63.4356L244.72 63.3848C244.793 63.3848 244.867 63.3735 244.934 63.3453L255.509 59.3036C255.994 59.1173 256.48 59.5915 256.316 60.0882L256.31 60.0995Z" fill="url(#paint39_linear_0_2995)"/>
<path d="M248.097 57.3167L240.136 60.4666C240.006 60.5174 239.927 60.6528 239.944 60.794L241.028 69.4926C241.039 69.5886 241.096 69.6733 241.181 69.7241C241.265 69.7749 241.367 69.7805 241.457 69.741L243.659 68.7814C243.862 68.6911 244.094 68.8435 244.088 69.0693L244.026 72.5521C244.026 72.7836 244.269 72.9416 244.478 72.8344L245.821 72.1401C246.03 72.0328 246.279 72.1852 246.273 72.4223L246.16 77.8922C246.154 78.2365 246.623 78.3325 246.753 78.0163L246.838 77.8075L251.078 63.0971C251.151 62.8487 250.908 62.6285 250.671 62.7245L248.39 63.622C248.176 63.7067 247.95 63.5317 247.972 63.3059L248.526 57.6498C248.548 57.4183 248.317 57.249 248.102 57.3337L248.097 57.3167Z" fill="url(#paint40_linear_0_2995)"/>
<path d="M296.128 81.5834C299.814 79.7715 299.961 76.1644 298.6 71.3211C297.24 66.4779 292.458 63.4297 291.204 64.045C289.951 64.6602 287.732 71.1518 289.093 75.9951C290.454 80.8383 292.441 83.3954 296.128 81.5778V81.5834Z" fill="url(#paint41_linear_0_2995)"/>
<path d="M298.489 82.7241C299.601 86.6812 302.802 86.3481 307.313 84.1241C311.824 81.9056 315.211 76.0294 314.833 74.6803C314.455 73.3368 308.961 71.6998 304.45 73.9238C299.94 76.1423 297.382 78.7671 298.489 82.7241Z" fill="url(#paint42_linear_0_2995)"/>
<path d="M297.885 80.5506C301.272 82.0634 303.638 79.2749 305.868 74.2848C308.098 69.2948 307.115 62.9839 305.964 62.4702C304.812 61.9565 299.364 65.3942 297.134 70.3899C294.904 75.3856 294.503 79.0434 297.885 80.5562V80.5506Z" fill="url(#paint43_linear_0_2995)"/>
<path d="M289.472 102.977C296.953 105.275 303.671 105.01 306.635 95.3625C309.593 85.7155 305.958 75.9387 298.477 73.6469C290.996 71.3551 282.505 77.4063 279.547 87.0533C276.588 96.7004 281.997 100.686 289.478 102.983L289.472 102.977Z" fill="url(#paint44_linear_0_2995)"/>
<path d="M303.276 91.8623C303.418 91.4003 302.586 90.7352 301.417 90.3767C300.249 90.0181 299.187 90.102 299.045 90.5639C298.903 91.0259 299.735 91.691 300.904 92.0496C302.072 92.4081 303.135 92.3242 303.276 91.8623Z" fill="#EAADCC"/>
<path d="M289.122 86.7372C289.328 86.2761 288.678 85.5375 287.67 85.0875C286.662 84.6376 285.678 84.6467 285.472 85.1079C285.267 85.569 285.917 86.3076 286.925 86.7576C287.932 87.2075 288.916 87.1984 289.122 86.7372Z" fill="#EAADCC"/>
<path d="M295.727 88.7414C295.01 89.0237 294.288 89.0124 293.565 88.6963C292.837 88.3802 292.374 87.9003 292.176 87.2568" stroke="black" stroke-linecap="round" stroke-linejoin="round"/>
<path d="M289.737 81.911C290.267 82.0521 290.696 82.3964 290.95 82.8367C291.204 83.277 291.295 83.8076 291.154 84.3326C291.012 84.8576 290.668 85.2753 290.228 85.5293C289.787 85.7777 289.245 85.8623 288.715 85.7212C288.184 85.5801 287.755 85.2358 287.501 84.7955C287.247 84.3552 287.156 83.8245 287.298 83.2996C287.439 82.7746 287.783 82.3569 288.223 82.1029C288.664 81.8545 289.206 81.7698 289.737 81.911Z" fill="black"/>
<path d="M289.354 83.5143C289.444 83.1699 289.241 82.8199 288.891 82.724C288.546 82.628 288.19 82.8312 288.094 83.1756C288.004 83.5199 288.207 83.8699 288.558 83.9658C288.902 84.0618 289.258 83.8586 289.354 83.5143Z" fill="white"/>
<path d="M301.158 85.93C301.689 86.0711 302.118 86.4155 302.372 86.8557C302.626 87.296 302.717 87.8267 302.575 88.3516C302.434 88.8766 302.09 89.2943 301.65 89.5483C301.209 89.7967 300.667 89.8814 300.137 89.7403C299.606 89.5991 299.177 89.2548 298.923 88.8145C298.669 88.3742 298.578 87.8436 298.719 87.3186C298.861 86.7937 299.205 86.3759 299.645 86.1219C300.086 85.8735 300.628 85.7889 301.158 85.93Z" fill="black"/>
<path fill-rule="evenodd" clip-rule="evenodd" d="M289.809 81.6456C291.023 81.973 291.746 83.2093 291.424 84.406C291.102 85.6027 289.855 86.3083 288.641 85.9865C287.427 85.6591 286.704 84.4229 287.026 83.2262C287.348 82.0295 288.595 81.3239 289.809 81.6456ZM288.782 85.4503C289.696 85.6986 290.639 85.1624 290.882 84.2592C291.125 83.356 290.577 82.419 289.663 82.1763C288.748 81.9279 287.805 82.4641 287.562 83.3673C287.32 84.2705 287.862 85.2075 288.782 85.4503Z" fill="white"/>
<path fill-rule="evenodd" clip-rule="evenodd" d="M301.231 85.6647C302.445 85.9921 303.168 87.2283 302.846 88.425C302.524 89.6217 301.276 90.3273 300.063 90.0056C298.849 89.6782 298.126 88.4419 298.448 87.2452C298.77 86.0485 300.017 85.3429 301.231 85.6647ZM300.209 89.4693C301.124 89.7177 302.067 89.1814 302.31 88.2782C302.552 87.3751 302.01 86.438 301.09 86.1953C300.175 85.9469 299.233 86.4832 298.99 87.3864C298.747 88.2895 299.289 89.2266 300.209 89.4693Z" fill="white"/>
<path d="M300.776 87.5387C300.866 87.1943 300.663 86.8444 300.313 86.7484C299.968 86.6524 299.612 86.8556 299.516 87.2C299.426 87.5443 299.629 87.8943 299.979 87.9903C300.324 88.0862 300.68 87.883 300.776 87.5387Z" fill="white"/>
<path d="M283.579 89.5034L288.107 98.2529" stroke="#ECB732"/>
<path d="M289.043 92.0435L283.516 95.1255" stroke="#ECB732"/>
<path d="M303.812 95.7124L295.152 100.415" stroke="#ECB732"/>
<path d="M297.861 94.7471L300.706 100.398" stroke="#ECB732"/>
<path d="M300.934 78.5298L295.311 81.5836" stroke="#FFC73B"/>
<path d="M298.715 82.6279L295.773 76.9492" stroke="#FFC73B"/>
<path opacity="0.6" d="M98.577 109.953C44.3665 109.953 0.420044 128.242 0.420044 150.805V221.642C0.420044 211.346 9.57745 201.941 24.6798 194.755C31.7878 191.374 40.2169 188.484 49.6284 186.226C64.0363 182.771 80.7477 180.79 98.5713 180.79C116.395 180.79 133.106 182.766 147.514 186.226C156.751 188.439 165.033 191.267 172.056 194.564L172.463 194.755V123.918C154.47 115.361 128.042 109.953 98.5713 109.953H98.577Z" fill="url(#paint45_linear_0_2995)"/>
<path opacity="0.67" d="M0.409058 151.155V221.992C0.409058 232.288 9.56646 241.692 24.6688 248.878V178.041C9.56646 170.861 0.409058 161.451 0.409058 151.155Z" fill="url(#paint46_linear_0_2995)"/>
<path opacity="0.2" d="M99.4142 123.004C97.9688 123.004 96.5348 123.015 95.1064 123.043V129.535C96.5348 129.507 97.9688 129.495 99.4142 129.495C102.469 129.495 105.495 129.558 108.481 129.676V123.185C105.495 123.066 102.469 123.004 99.4142 123.004Z" fill="#3486FE"/>
<path d="M92.2596 134.232V136.41C94.6196 136.337 97.0077 136.298 99.4128 136.298C100.44 136.298 101.468 136.303 102.49 136.32V134.141C101.468 134.13 100.44 134.119 99.4128 134.119C97.0077 134.119 94.6252 134.158 92.2596 134.232Z" fill="#3486FE"/>
<path d="M40.1937 179.797C41.7576 180.57 43.2932 180.802 45.3257 180.565C43.3045 180.796 41.7689 180.565 40.1937 179.797Z" fill="#3486FE"/>
<path d="M45.6189 180.519C45.6189 180.519 45.648 180.519 45.6596 180.514C45.648 180.514 45.6305 180.514 45.6189 180.519Z" fill="#3486FE"/>
<path d="M44.6394 179.425C45.825 179.362 46.9655 179.103 48.0494 178.702C46.8582 178.668 45.8024 179.312 44.6394 179.425Z" fill="#3486FE"/>
<path d="M48.053 179.881C47.6577 180.022 47.3357 180.124 46.9517 180.231C47.3414 180.124 47.6633 180.022 48.053 179.881Z" fill="#3486FE"/>
<path d="M53.0886 156.106C50.8867 155.27 48.9615 155.535 47.8098 155.688C47.9566 155.936 48.0639 156.269 47.7872 156.828C58.0625 155.84 60.6821 166.509 54.5621 173.954C53.0773 175.766 50.7682 177.68 48.0469 178.696C48.0752 178.696 48.1034 178.696 48.126 178.696C48.7244 178.73 48.6454 179.351 48.38 179.65C48.2784 179.769 48.1655 179.819 48.0808 179.859C60.8233 174.621 62.3081 159.588 53.0829 156.094L53.0886 156.106Z" fill="#3486FE"/>
<path d="M44.6367 179.424C44.5466 179.424 44.4621 179.441 44.3777 179.441C44.4678 179.441 44.5522 179.436 44.6367 179.424Z" fill="#3486FE"/>
<path d="M47.9058 178.764C46.1048 179.418 43.4174 179.932 40.8486 178.673C40.7865 179.26 40.4534 179.61 40.1937 179.797C43.632 181.473 48.9842 180.356 48.5664 178.995C48.5268 178.865 48.3857 178.589 47.9058 178.758V178.764Z" fill="#FF6984"/>
<path d="M46.9579 155.417C34.78 159.442 32.5612 175.919 39.291 179.887C40.0193 180.316 41.0694 179.249 40.8266 178.324C40.7532 178.053 40.7193 178.03 40.1604 177.635C39.6241 177.257 36.9875 175.117 37.3996 169.952C37.6876 166.368 39.5563 162.62 42.2832 160.158C44.1858 158.442 45.9247 157.872 46.9635 157.528C47.0595 157.494 47.3079 157.415 47.5281 157.195C48.4145 156.297 47.8725 155.163 46.9635 155.422L46.9579 155.417Z" fill="white"/>
<path d="M17.8165 137.54C17.8165 137.54 17.7934 137.557 17.7819 137.568C17.7934 137.557 17.8049 137.551 17.8165 137.54Z" fill="#3486FE"/>
<path d="M22.6796 166.548C19.772 170.037 19.2526 170.669 17.5476 170.641C15.2216 170.601 14.7869 167.672 14.7078 166.413C14.5723 164.223 15.103 161.073 16.554 158.471C16.2491 159.007 15.9838 159.566 15.7579 160.147C15.3966 161.09 15.2555 160.446 15.2555 160.441C15.2555 160.401 15.2555 160.345 15.2724 160.283C13.4996 165.228 13.9231 171.194 17.1242 171.471C18.5695 171.595 20.8843 170.449 23.0466 166.848C22.8941 166.859 22.7643 166.842 22.674 166.548H22.6796Z" fill="#3486FE"/>
<path d="M18.5538 155.152C16.3859 156.998 14.7825 160.616 15.4035 160.661C15.5672 160.672 15.6519 160.441 15.7705 160.148C16.1657 159.12 17.0577 157.201 18.6159 155.897C18.4579 155.688 18.4974 155.378 18.5595 155.157L18.5538 155.152Z" fill="white"/>
<path d="M19.28 154.322C18.0266 155.078 18.5686 155.959 18.7719 155.981C18.8735 155.993 18.9638 155.931 19.0372 155.885C20.4204 154.954 21.4875 155.169 22.0012 155.383C22.9779 155.784 23.7288 156.8 24.0732 158.166C24.4515 159.679 24.5418 162.23 22.8142 165.792C22.498 166.447 22.7408 166.915 23.057 166.848C24.3216 166.588 26.9412 158.397 23.9208 154.915C23.3506 154.26 21.7641 152.894 19.2856 154.322H19.28Z" fill="#FF6984"/>
<path opacity="0.2" d="M96.7722 146.87V170.082C98.5958 170.037 100.431 170.014 102.277 170.014C125.724 170.014 147.279 173.571 164.278 179.52V156.309C147.279 150.359 125.724 146.803 102.277 146.803C100.431 146.803 98.5901 146.825 96.7722 146.87ZM159.434 161.079C159.474 160.616 159.863 160.683 160.055 160.892C160.208 161.062 160.225 161.248 160.23 161.327V175.315C160.191 175.755 159.846 175.653 159.83 175.648C159.587 175.541 159.451 175.349 159.429 175.061V161.079H159.434ZM152.868 162.693C152.914 162.185 153.393 162.292 153.585 162.557C153.687 162.699 153.698 162.811 153.71 162.919V173.384C153.67 173.791 153.382 173.751 153.292 173.729C153.032 173.633 152.891 173.446 152.868 173.158V162.687V162.693ZM145.958 167.745C145.981 167.322 146.421 167.265 146.686 167.553C146.833 167.717 146.844 167.886 146.844 167.943V171.685C146.827 172.018 146.573 172.08 146.404 172.046C146.15 171.973 145.975 171.753 145.958 171.488V167.745ZM138.737 157.212C138.788 156.698 139.313 156.777 139.527 157.026C139.64 157.161 139.652 157.268 139.663 157.376V170.212C139.623 170.618 139.302 170.601 139.206 170.59C138.918 170.511 138.765 170.342 138.737 170.048V157.206V157.212ZM131.228 154.135C131.285 153.622 131.827 153.678 132.047 153.927C132.165 154.056 132.177 154.169 132.188 154.271V168.998C132.143 169.427 131.781 169.399 131.708 169.388C131.415 169.314 131.256 169.145 131.228 168.863V154.135ZM123.46 149.213C123.561 148.603 124.233 148.801 124.391 149.089C124.425 149.151 124.442 149.247 124.453 149.315V168.044C124.391 168.406 124.154 168.468 123.968 168.451C123.533 168.372 123.488 168.084 123.465 167.943V149.213H123.46ZM115.454 150.24C115.51 149.71 116.148 149.715 116.386 150.043C116.453 150.139 116.465 150.229 116.47 150.303V167.356C116.419 167.796 116.007 167.785 115.962 167.779C115.652 167.728 115.482 167.57 115.454 167.288V150.235V150.24Z" fill="#3486FE"/>
<path d="M159.841 160.746C159.598 160.7 159.462 160.813 159.44 161.079V175.061C159.485 175.614 159.976 175.8 160.174 175.552C160.225 175.484 160.236 175.377 160.242 175.315V161.327C160.202 160.864 159.88 160.751 159.841 160.74V160.746Z" fill="#FF6984"/>
<path d="M153.286 162.348C153.032 162.309 152.896 162.422 152.874 162.698V173.17C152.925 173.751 153.472 173.864 153.648 173.632C153.704 173.559 153.71 173.469 153.721 173.395V162.93C153.681 162.456 153.331 162.365 153.292 162.354L153.286 162.348Z" fill="#FF6984"/>
<path d="M146.405 167.389C146.151 167.35 145.976 167.491 145.959 167.751V171.493C145.981 171.973 146.501 172.21 146.744 171.962C146.834 171.866 146.84 171.747 146.845 171.691V167.948C146.829 167.604 146.574 167.423 146.405 167.389Z" fill="#FF6984"/>
<path d="M139.189 156.84C138.912 156.817 138.76 156.941 138.732 157.218V170.06C138.788 170.641 139.387 170.715 139.579 170.466C139.641 170.387 139.647 170.297 139.658 170.223V157.387C139.613 156.919 139.234 156.851 139.189 156.845V156.84Z" fill="#FF6984"/>
<path d="M131.696 153.746C131.407 153.735 131.249 153.864 131.221 154.141V168.868C131.283 169.444 131.899 169.501 132.097 169.247C132.159 169.162 132.17 169.072 132.176 169.004V154.276C132.13 153.808 131.735 153.751 131.69 153.746H131.696Z" fill="#FF6984"/>
<path d="M123.94 148.807C123.641 148.807 123.483 148.942 123.449 149.219V167.948C123.55 168.597 124.217 168.524 124.381 168.259C124.415 168.202 124.431 168.112 124.437 168.05V149.32C124.369 148.886 124.064 148.818 123.934 148.807H123.94Z" fill="#FF6984"/>
<path d="M115.95 149.817C115.492 149.834 115.459 150.144 115.447 150.246V167.299C115.509 167.863 116.198 167.909 116.402 167.581C116.436 167.525 116.458 167.434 116.464 167.367V150.314C116.413 149.845 115.967 149.823 115.95 149.823V149.817Z" fill="#FF6984"/>
<path d="M46.9583 162.772C41.3634 164.601 39.8165 171.951 43.4523 174.084C47.5116 176.461 53.6316 171.025 52.5476 166.007C51.9943 163.45 49.5949 162.061 46.9583 162.778V162.772Z" fill="#3486FE"/>
<path opacity="0.2" d="M68.8644 127.458C76.1022 126.436 83.707 125.764 91.5659 125.499V123.14C83.707 123.411 76.1022 124.077 68.8644 125.098V127.458Z" fill="#3486FE"/>
<path opacity="0.2" d="M68.8644 131.731C76.1022 130.709 83.707 130.037 91.5659 129.772V127.413C83.707 127.684 76.1022 128.35 68.8644 129.371V131.731Z" fill="#3486FE"/>
<path opacity="0.2" d="M68.8644 135.999C72.7543 135.451 76.7515 135 80.8334 134.661V132.301C76.7515 132.64 72.7543 133.086 68.8644 133.639V135.999Z" fill="#3486FE"/>
<path d="M3.11121 175.225V177.584C5.02511 180.836 7.77459 183.94 11.2524 186.853V184.493C7.77459 181.581 5.02511 178.476 3.11121 175.225Z" fill="#3486FE"/>
<path d="M3.11121 179.492V181.846C5.02511 185.098 7.77459 188.202 11.2524 191.115V188.761C7.77459 185.848 5.02511 182.744 3.11121 179.492Z" fill="#3486FE"/>
<path d="M3.11121 183.765V186.119C5.02511 189.37 7.77459 192.475 11.2524 195.388V193.034C7.77459 190.121 5.02511 187.017 3.11121 183.765Z" fill="#3486FE"/>
<path d="M3.11121 192.893V195.253C6.29541 199.943 6.38574 200.028 11.2524 204.521V202.162C7.77459 199.249 5.02511 196.144 3.11121 192.893Z" fill="#3486FE"/>
<path d="M3.11121 197.16V199.52C5.02511 202.771 7.77459 205.876 11.2524 208.789V206.429C7.77459 203.516 5.02511 200.412 3.11121 197.16Z" fill="#3486FE"/>
<path d="M4.77136 203.94V206.299C6.50461 208.648 8.67822 210.906 11.2527 213.056V210.697C8.67822 208.546 6.50461 206.283 4.77136 203.94Z" fill="#3486FE"/>
<path d="M0.565552 208.388V210.748C1.94876 216.234 5.65801 221.416 11.2473 226.096V223.736C5.65801 219.057 1.94876 213.875 0.565552 208.388Z" fill="#3486FE"/>
<path d="M0.565552 212.661V215.021C1.94876 220.507 5.65801 225.689 11.2473 230.369V228.009C5.65801 223.33 1.94876 218.148 0.565552 212.661Z" fill="#3486FE"/>
<path d="M4.77136 225.514V227.874C6.50461 230.222 8.67822 232.48 11.2527 234.631V232.271C8.67822 230.12 6.50461 227.857 4.77136 225.514Z" fill="#3486FE"/>
<path d="M41.1411 188.202C40.4184 188.462 39.9668 189.512 39.9894 190.076C40.0176 190.646 37.3189 188.264 35.4841 186.61C33.6492 184.962 29.7423 184.442 29.2681 184.725C28.7939 185.001 28.8785 186.35 31.7692 186.864C31.7692 186.864 29.9174 187.389 28.8221 187.908C27.7268 188.428 27.7607 192.413 29.6633 192.684C31.5659 192.955 33.796 194.592 35.3203 195.597C36.8447 196.601 39.8934 198.109 39.8934 198.109L43.8002 194.264C42.1743 192.537 41.8694 187.942 41.1411 188.196V188.202Z" fill="url(#paint47_linear_0_2995)"/>
<path d="M88.9105 182.365C88.9105 182.365 89.4807 182.309 91.3777 180.226C92.3996 179.108 91.9536 173.96 92.3657 171.471C92.7779 168.981 97.8252 166.853 98.9091 168.818C99.9931 170.782 103.031 177.765 104.916 178.086C106.802 178.403 107.925 178.73 108.648 184.081C109.258 188.625 103.894 190.753 101.088 187.654C98.2825 184.555 92.9811 182.439 90.226 182.128L88.9105 182.371V182.365Z" fill="url(#paint48_linear_0_2995)"/>
<path style="mix-blend-mode:multiply" d="M108.653 184.075C108.602 183.697 108.546 183.341 108.495 183.014C106.333 182.399 103.713 181.512 102.217 180.496C98.5358 177.99 97.418 171.137 97.0962 168.055C95.2161 168.168 92.6642 169.732 92.3763 171.47C92.3763 171.499 92.365 171.532 92.3594 171.566L93.3361 172.684C94.883 175.145 95.1314 180.406 93.4772 182.946C96.1138 183.883 99.1851 185.537 101.093 187.654C103.899 190.753 109.268 188.625 108.653 184.081V184.075Z" fill="url(#paint49_linear_0_2995)"/>
<path d="M98.7204 178.657C98.6134 178.651 98.5121 178.645 98.4164 178.64C98.5459 178.651 98.6528 178.657 98.7204 178.657Z" fill="white"/>
<path d="M97.4006 178.572C97.0853 178.549 97.1641 178.555 97.4006 178.572V178.572Z" fill="white"/>
<path d="M97.815 178.6C97.6798 178.589 97.5729 178.583 97.4828 178.578C97.5785 178.583 97.6967 178.589 97.815 178.6Z" fill="white"/>
<path d="M98.4253 178.64C98.2445 178.628 98.0243 178.611 97.8209 178.6C97.9847 178.611 98.1824 178.623 98.4253 178.64Z" fill="white"/>
<path d="M98.7204 178.657C98.6134 178.651 98.5121 178.645 98.4164 178.64C98.5459 178.651 98.6528 178.657 98.7204 178.657Z" fill="white"/>
<path d="M98.4253 178.64C98.2445 178.628 98.0243 178.611 97.8209 178.6C97.9847 178.611 98.1824 178.623 98.4253 178.64Z" fill="white"/>
<path d="M97.815 178.6C97.6798 178.589 97.5729 178.583 97.4828 178.578C97.5785 178.583 97.6967 178.589 97.815 178.6Z" fill="white"/>
<path d="M97.4006 178.572C97.0853 178.549 97.1641 178.555 97.4006 178.572V178.572Z" fill="white"/>
<path d="M85.5383 162.072C81.671 158.081 82.0887 155.66 83.7542 153.238C85.6512 150.472 92.8269 144.477 100.934 147.768C109.042 151.059 107.557 151.686 112.062 153.87C116.567 156.06 124.635 156.563 125.832 160.751C130.851 178.301 132.838 168.654 140.426 175.942C145.931 181.231 146.501 191.358 140.635 191.329C130.631 191.279 133.651 198.572 127.627 201.925C122.682 204.674 118.34 201.027 110.47 188.642C107.551 184.053 100.087 184.211 97.9476 181.451C95.0457 177.708 94.7126 176.721 93.5214 172.216C92.8552 169.71 86.5432 163.111 85.5439 162.078L85.5383 162.072Z" fill="#ED7286"/>
<path d="M137.084 186.61C124.889 186.147 128.254 175.631 117.798 174.796C101.369 173.486 108.861 165.38 94.1931 159.651C89.5297 157.827 90.9976 154.666 86.6447 155.067C82.9072 155.406 83.5847 159.481 85.0752 159.205L86.8875 163.495C86.9496 163.557 87.006 163.625 87.0681 163.692C87.9206 164.003 93.3293 166.125 95.4803 171.002C96.5981 173.542 98.9073 180.593 105.592 182.456C109.256 183.477 111.655 187.847 113.298 192.932C119.446 201.846 123.303 204.324 127.622 201.925C133.651 198.572 130.625 191.284 140.629 191.329C143.125 191.341 144.451 189.517 144.734 187.005C142.978 186.797 140.398 186.734 137.084 186.61Z" fill="url(#paint50_linear_0_2995)"/>
<path opacity="0.5" d="M125.825 160.751C124.628 156.569 116.561 156.061 112.055 153.87C107.55 151.68 109.035 151.054 100.928 147.768C92.8203 144.483 85.6446 150.478 83.7476 153.238C82.0821 155.665 81.6644 158.081 85.5317 162.072C80.953 155.361 83.9396 153.244 85.6672 152.279C101.103 143.67 108.64 163.326 111.214 162.106C120.4 157.743 124.493 166.306 125.814 160.751H125.825Z" fill="white"/>
<path d="M66.2717 157.122C65.024 156.67 62.5963 156.506 61.7494 155.66C60.9026 154.813 60.5921 153.458 59.6662 152.532C58.7403 151.607 57.0465 151.816 58.8927 153.661C60.7389 155.507 60.5413 160.909 59.1524 160.407C57.7635 159.899 57.4304 159.78 56.9336 160.277C56.4368 160.774 61.2921 162.902 62.4439 166.825L67.5307 166.007C67.5307 166.007 66.2773 163.466 66.2773 162.1C66.2773 160.734 67.525 157.568 66.2773 157.11L66.2717 157.122Z" fill="url(#paint51_linear_0_2995)"/>
<path d="M68.4577 167.937C66.7866 163.128 64.0089 164.618 62.733 165.815C61.457 167.017 64.6243 175.321 65.601 181.248C66.5777 187.175 68.4973 191.679 70.1741 192.295C71.8508 192.91 78.4789 193.672 78.4789 193.672L84.7062 185.43C84.7062 185.43 77.2087 186.192 76.0005 184.358C74.4818 182.055 68.4577 167.937 68.4577 167.937Z" fill="#91BEFF"/>
<path d="M75.9995 184.358C74.4808 182.055 68.4568 167.937 68.4568 167.937C66.9945 163.738 64.6967 164.342 63.2853 165.358C64.3467 167.706 65.6 171.138 67.4688 176.354C71.0595 186.373 73.5323 188.626 74.8534 189.106C75.4801 189.337 78.2973 189.811 81.0694 190.251L84.7109 185.431C84.7109 185.431 77.2133 186.193 76.0051 184.358H75.9995Z" fill="white"/>
<path d="M118.772 335.87C118.761 335.842 118.749 335.814 118.732 335.791C118.687 335.487 118.603 335.17 118.461 334.843C117.462 332.529 114.063 326.963 114.063 326.963L107.153 327.956C108.355 332.85 104.906 336.153 102.89 337.507C100.875 338.857 98.1593 338.67 96.5672 341.306C94.9751 343.937 102.134 344.417 105.053 343.7C107.802 343.022 110.162 339.98 113.578 339.393C113.871 340.065 114.267 340.996 114.504 341.623C114.91 342.695 118.761 341.408 118.738 340.652C118.71 339.647 119.077 336.903 118.766 335.882L118.772 335.87Z" fill="white"/>
<g style="mix-blend-mode:multiply">
<path d="M105.058 343.694C107.808 343.017 110.168 339.974 113.583 339.387C113.877 340.059 114.272 340.991 114.509 341.617C114.916 342.69 118.766 341.403 118.744 340.646C118.715 339.641 119.082 336.898 118.772 335.876C118.761 335.848 118.749 335.82 118.732 335.797C118.687 335.492 118.603 335.176 118.461 334.849C117.462 332.535 114.063 326.969 114.063 326.969L111.111 327.392L109.914 328.724C109.914 336.305 105.369 339.1 103.178 339.895C101.942 340.347 99.4521 340.291 97.5044 340.155C97.1656 340.466 96.8495 340.844 96.5672 341.307C94.9751 343.937 102.134 344.417 105.053 343.7L105.058 343.694Z" fill="#91BEFF"/>
</g>
<path d="M92.7595 252.807C87.3339 274.393 88.9542 275.64 90.6197 280.597C92.6014 286.484 96.0397 293.721 96.2768 294.68C96.5139 295.64 106.174 322.301 107.162 327.957C107.659 330.807 114.242 328.504 114.072 326.963C113.57 322.374 112.486 301.454 111.374 295.499C110.261 289.544 103.594 280.354 102.306 277.04C101.019 273.732 112.666 254.218 114.484 250.572C119.108 241.297 111.097 237.555 106.891 228.387C102.685 219.22 95.6727 241.235 92.7651 252.801L92.7595 252.807Z" fill="url(#paint52_linear_0_2995)"/>
<path style="mix-blend-mode:multiply" d="M109.962 329.272C111.921 329.046 114.168 327.872 114.066 326.963C113.564 322.374 112.48 301.454 111.368 295.499C110.255 289.538 103.588 280.354 102.301 277.04C101.465 274.895 106.061 265.954 109.894 258.932C104.587 262.917 97.513 268.099 94.6281 272.925C93.6062 274.636 93.8602 276.82 95.2491 278.254C102.222 285.462 106.462 294.861 107.483 300.342C108.454 305.53 109.403 322.058 109.956 329.278L109.962 329.272Z" fill="url(#paint53_linear_0_2995)"/>
<path d="M115.021 302.03C119.233 304.062 121.977 311.807 121.198 316.791C120.893 318.733 118.443 324.716 121.169 324.282C125.065 323.661 128.639 315.391 128.594 310.638C128.565 307.629 128.52 308.442 130.649 306.371C132.93 304.152 132.867 302.357 129 301.127C125.308 299.952 118.629 296.402 118.629 296.402L114.485 297.977L115.021 302.024V302.03Z" fill="#91BEFF"/>
<g style="mix-blend-mode:multiply">
<path d="M130.321 306.692L128.419 305.422C127.442 306.963 127.002 308.476 126.657 309.199C125.545 311.513 123.874 318.202 121.345 321.73C120.582 322.792 120.458 323.627 120.712 324.287C120.848 324.31 121 324.31 121.175 324.287C125.071 323.666 128.645 315.397 128.599 310.644C128.571 307.799 128.532 308.369 130.321 306.692Z" fill="#3486FE"/>
</g>
<path d="M131.585 302.633C130.721 301.996 126.56 306.557 128.35 308.109C128.982 308.657 130.348 309.063 131.314 309.678C132.285 310.294 134.899 307.635 134.43 307.042C133.803 306.252 132.448 303.271 131.585 302.633Z" fill="#91BEFF"/>
<g style="mix-blend-mode:multiply">
<path d="M131.316 309.684C132.174 310.361 134.585 307.962 134.483 307.206C134.297 305.795 130.802 309.283 131.316 309.684Z" fill="#3486FE"/>
</g>
<path d="M118.628 233.411C128.068 247.28 82.5802 280.184 86.7185 281.133C90.8568 282.081 93.5329 280.895 103.769 286.642C114.004 292.388 116.133 295.03 118.628 296.407C115.529 297.604 115.021 302.03 115.021 302.03C113.186 300.968 91.6698 294.624 84.4037 292.371C77.1377 290.119 72.8017 288.753 70.5096 285.874C65.801 279.947 89.4285 241.246 89.4285 241.246L118.628 233.417V233.411Z" fill="url(#paint54_linear_0_2995)"/>
<path style="mix-blend-mode:multiply" d="M115.019 302.03C115.019 302.03 115.528 297.604 118.627 296.407C116.132 295.024 114.003 292.383 103.767 286.642C93.5317 280.895 90.8556 282.081 86.7173 281.133C82.5789 280.184 128.067 247.286 118.627 233.411L108.843 236.036C109.193 252.824 96.5917 263.752 94.7455 265.852C92.5776 268.307 92.3969 267.935 89.9184 268.731C87.4399 269.527 83.2508 269.589 82.5733 270.334C81.8902 271.079 77.3962 282.312 77.9664 283.43C78.9374 285.332 79.2875 285.073 84.3122 290.102C85.1703 290.96 86.3221 292.078 87.6883 293.382C96.6933 296.114 113.405 301.104 115.014 302.035L115.019 302.03Z" fill="url(#paint55_linear_0_2995)"/>
<path d="M92.5875 164.968C93.1408 166.289 93.8691 168.202 92.7738 169.642C94.4901 171.691 94.6143 174.767 94.3998 174.858C91.3003 176.116 90.5155 176.32 89.3638 176.354C86.9079 176.427 85.5811 168.897 85.4061 167.491C85.1295 165.261 86.1288 164.957 86.3772 162.761C86.5183 161.519 85.4852 159.199 85.4852 159.199C87.2862 158.335 87.5967 158.561 89.584 163.608C90.0639 164.827 90.8881 160.932 92.5819 164.962L92.5875 164.968Z" fill="url(#paint56_linear_0_2995)"/>
<path style="mix-blend-mode:multiply" d="M90.4546 166.283C90.4997 166.865 90.7199 168.112 91.3579 168.4C92.8032 169.055 92.0805 165.442 91.6232 164.669C91.1603 163.895 90.2908 164.059 90.4546 166.283Z" fill="url(#paint57_linear_0_2995)"/>
<path style="mix-blend-mode:multiply" d="M92.5879 164.968C90.8942 160.938 90.0699 164.833 89.59 163.613C87.6027 158.567 87.2922 158.341 85.4912 159.205C85.4912 159.205 85.8017 159.91 86.0614 160.751C87.1567 162.913 88.8278 163.32 88.0826 164.076C85.3501 166.848 87.1454 172.459 89.8102 176.331C90.7643 176.247 91.7128 175.953 94.3946 174.858C94.6091 174.773 94.4849 171.691 92.7686 169.642C93.8639 168.203 93.1355 166.289 92.5823 164.968H92.5879Z" fill="url(#paint58_linear_0_2995)"/>
<path d="M43.9115 193.198C46.2997 194.959 57.8848 199.599 62.7457 204.244C63.937 205.385 68.7754 199.638 71.7733 196.568C74.7712 193.497 79.3612 184.149 84.7021 182.805C87.9879 181.981 89.1961 181.902 91.8044 181.36C95.2427 180.649 98.9068 182.009 102.706 181.468C103.74 181.321 103.638 177.821 104.462 177.917C108.341 178.363 112.434 180.897 114.365 184.194C116.296 187.491 119.045 193.514 118.147 202.732C117.255 211.916 113.162 216.849 118.311 225.638C123.816 235.026 121.207 245.813 119.412 259.265C118.418 266.716 118.159 276.927 118.159 276.927C113.354 281.731 101.775 267.134 89.6026 274.754C75.6519 283.492 61.3174 268.443 59.8664 265.717C47.9991 243.408 71.0732 252.209 84.5722 238.435C86.0514 236.922 92.1714 229.093 93.261 227.038C96.7275 220.524 92.911 213.897 89.9131 211.684C86.1304 208.89 85.3626 206.011 85.5489 204.075C85.9893 199.559 86.3619 199.226 86.3619 199.226C85.2328 200.891 76.3576 206.023 73.021 208.67C69.6844 211.317 67.1551 212.909 66.3082 213.581C65.4614 214.253 64.6201 215.743 59.6632 212.119C56.9758 210.155 44.1825 201.812 40.8572 199.153C38.0061 196.872 40.829 190.934 43.9002 193.198H43.9115Z" fill="#91BEFF"/>
<path d="M118.17 276.922C118.17 276.922 118.43 266.71 119.423 259.259C121.219 245.807 123.827 235.02 118.322 225.633C113.168 216.849 117.267 211.916 118.159 202.726C118.955 194.513 116.86 188.84 115.031 185.368C111.485 182.879 107.55 180.751 103.672 179.582C103.463 180.468 103.231 181.383 102.712 181.456C99.3583 181.936 96.112 180.931 93.0294 181.18C92.3124 181.879 90.0541 183.669 84.5777 185.137C80.9645 186.107 74.6469 195.484 73.5403 196.72C72.4394 197.962 66.0371 209.099 61.8988 209.421C58.5734 209.68 46.0286 200.05 39.6828 196.443C39.6715 197.459 40.0102 198.458 40.8571 199.141C44.1824 201.806 56.9813 210.143 59.6631 212.108C64.62 215.732 65.4612 214.241 66.3081 213.57C67.155 212.898 69.6843 211.306 73.0209 208.659C76.2107 206.124 84.4705 201.32 86.1642 199.452C86.2263 199.373 86.294 199.294 86.3561 199.215C88.0273 197.149 84.5664 205.74 90.901 208.839C101.961 214.247 102.588 218.102 102.271 222.189C101.662 230.098 105.495 237.842 86.5763 245.587C79.6264 248.432 68.7979 260.433 62.5085 268.878C67.5445 273.873 78.6836 281.573 89.5912 274.743C100.837 266.185 107.217 272.423 107.217 272.423C107.217 273.365 107.291 274.263 107.432 275.11C112.084 277.113 115.872 279.185 118.142 276.91L118.17 276.922Z" fill="white"/>
<path d="M94.4779 219.819L94.2013 224.481C99.4631 234.614 117.208 223.528 117.208 223.528C116.7 222.495 115.994 219.819 115.994 219.819C101.981 228.399 94.4779 223.138 94.4779 219.819Z" fill="#3486FE"/>
<path d="M94.4779 219.819L94.2013 224.481C95.9007 227.755 98.8986 228.811 102.184 228.749V224.481C97.1145 224.436 94.4779 221.789 94.4779 219.819Z" fill="#2848BD"/>
<path opacity="0.67" d="M36.5747 125.979V148.812C43.5867 146.018 51.7787 143.783 60.7837 142.27V119.437C51.7787 120.949 43.5867 123.185 36.5747 125.979Z" fill="url(#paint59_linear_0_2995)"/>
<path d="M57.6897 135.637C57.7914 135.846 57.8478 136.1 57.8478 136.377C57.8478 136.653 57.797 136.936 57.6897 137.206C57.5881 137.472 57.4357 137.715 57.2607 137.901C57.08 138.093 56.8768 138.223 56.6735 138.279L50.1696 140.153L51.2423 137.387L55.5105 136.157L52.3093 129.699L51.2423 132.459L49.2494 137.619C48.4251 139.702 47.2338 140.989 45.6191 141.451L41.5316 142.626C41.3284 142.682 41.1195 142.671 40.9445 142.586C40.7638 142.501 40.617 142.343 40.5154 142.14C40.4138 141.931 40.3573 141.677 40.3573 141.401C40.3573 141.124 40.4081 140.842 40.5154 140.571L45.9522 126.481C46.0539 126.216 46.2063 125.973 46.3813 125.787C46.5563 125.601 46.7596 125.465 46.9685 125.403C47.1774 125.341 47.3806 125.358 47.5556 125.448C47.7363 125.533 47.8831 125.691 47.9847 125.894L50.1696 130.303L51.2875 127.407C51.3891 127.142 51.5415 126.899 51.7165 126.713C51.8972 126.521 52.1005 126.391 52.3037 126.329C52.5069 126.267 52.7158 126.284 52.8909 126.374C53.0715 126.459 53.2183 126.617 53.3199 126.82L57.6897 135.626V135.637ZM47.6742 136.777L49.1026 133.08L46.9685 128.773L42.7003 139.843L45.5514 139.024C46.5112 138.748 47.1322 138.132 47.6798 136.783" fill="#00DC82"/>
<path d="M137.557 110.055L140.99 117.591L144.462 125.132L140.431 131.2L130.02 108.615L137.557 110.055Z" fill="#3AB982"/>
<path d="M152.524 112.911L144.462 125.132L141.001 117.573L145.021 111.477L152.524 112.911Z" fill="#34495F"/>
<path d="M145.02 111.477L141.001 117.574L137.557 110.055L139.098 110.348L145.02 111.477Z" fill="#F78200"/>
<path d="M144.626 101.904L147.364 107.887L145.021 111.477L139.099 110.348L144.626 101.904Z" fill="#FFCC00"/>
<path d="M141.88 95.9653L144.624 101.904L139.097 110.348L137.556 110.055L135.506 105.624L141.88 95.9653Z" fill="#FFE183"/>
<defs>
<linearGradient id="paint0_linear_0_2995" x1="119.951" y1="114.661" x2="150.442" y2="128.399" gradientUnits="userSpaceOnUse">
<stop stop-color="#20267F"/>
<stop offset="0.24" stop-color="#212881"/>
<stop offset="0.42" stop-color="#252F8B"/>
<stop offset="0.57" stop-color="#2C3B9B"/>
<stop offset="0.71" stop-color="#364DB1"/>
<stop offset="0.85" stop-color="#4363CE"/>
<stop offset="0.98" stop-color="#527EF2"/>
<stop offset="1" stop-color="#5684F9"/>
</linearGradient>
<linearGradient id="paint1_linear_0_2995" x1="85.6604" y1="106.933" x2="207.87" y2="148.136" gradientUnits="userSpaceOnUse">
<stop stop-color="#20267F"/>
<stop offset="0.24" stop-color="#212881"/>
<stop offset="0.42" stop-color="#252F8B"/>
<stop offset="0.57" stop-color="#2C3B9B"/>
<stop offset="0.71" stop-color="#364DB1"/>
<stop offset="0.85" stop-color="#4363CE"/>
<stop offset="0.98" stop-color="#527EF2"/>
<stop offset="1" stop-color="#5684F9"/>
</linearGradient>
<linearGradient id="paint2_linear_0_2995" x1="164.747" y1="61.6445" x2="146.823" y2="71.8868" gradientUnits="userSpaceOnUse">
<stop stop-color="#E8F0FD"/>
<stop offset="0.17" stop-color="#DEE8FC"/>
<stop offset="0.46" stop-color="#C3D6FB"/>
<stop offset="0.83" stop-color="#98B7FA"/>
<stop offset="1" stop-color="#83A8FA"/>
</linearGradient>
<linearGradient id="paint3_linear_0_2995" x1="95.8119" y1="45.9071" x2="102.276" y2="45.9071" gradientUnits="userSpaceOnUse">
<stop stop-color="#F1CFBA"/>
<stop offset="1" stop-color="#D388A1"/>
</linearGradient>
<linearGradient id="paint4_linear_0_2995" x1="101.362" y1="38.8168" x2="104.094" y2="38.8168" gradientUnits="userSpaceOnUse">
<stop stop-color="#F1CFBA"/>
<stop offset="1" stop-color="#D388A1"/>
</linearGradient>
<linearGradient id="paint5_linear_0_2995" x1="174.752" y1="81.3566" x2="192.034" y2="83.8016" gradientUnits="userSpaceOnUse">
<stop stop-color="#E8F0FD"/>
<stop offset="0.17" stop-color="#DEE8FC"/>
<stop offset="0.46" stop-color="#C3D6FB"/>
<stop offset="0.83" stop-color="#98B7FA"/>
<stop offset="1" stop-color="#83A8FA"/>
</linearGradient>
<linearGradient id="paint6_linear_0_2995" x1="139.118" y1="69.9143" x2="157.055" y2="69.9143" gradientUnits="userSpaceOnUse">
<stop stop-color="#F1CFBA"/>
<stop offset="1" stop-color="#D388A1"/>
</linearGradient>
<linearGradient id="paint7_linear_0_2995" x1="143.826" y1="73.4425" x2="156.62" y2="73.4425" gradientUnits="userSpaceOnUse">
<stop stop-color="#F1CFBA"/>
<stop offset="1" stop-color="#D388A1"/>
</linearGradient>
<linearGradient id="paint8_linear_0_2995" x1="177.002" y1="65.4322" x2="194.283" y2="67.8772" gradientUnits="userSpaceOnUse">
<stop stop-color="#E8F0FD"/>
<stop offset="0.17" stop-color="#DEE8FC"/>
<stop offset="0.46" stop-color="#C3D6FB"/>
<stop offset="0.83" stop-color="#98B7FA"/>
<stop offset="1" stop-color="#83A8FA"/>
</linearGradient>
<linearGradient id="paint9_linear_0_2995" x1="174.703" y1="21.2841" x2="177.255" y2="21.2841" gradientUnits="userSpaceOnUse">
<stop stop-color="#F1CFBA"/>
<stop offset="1" stop-color="#D388A1"/>
</linearGradient>
<linearGradient id="paint10_linear_0_2995" x1="192.577" y1="29.6162" x2="151.028" y2="-1.32579" gradientUnits="userSpaceOnUse">
<stop stop-color="#20267F"/>
<stop offset="0.24" stop-color="#212881"/>
<stop offset="0.42" stop-color="#252F8B"/>
<stop offset="0.57" stop-color="#2C3B9B"/>
<stop offset="0.71" stop-color="#364DB1"/>
<stop offset="0.85" stop-color="#4363CE"/>
<stop offset="0.98" stop-color="#527EF2"/>
<stop offset="1" stop-color="#5684F9"/>
</linearGradient>
<linearGradient id="paint11_linear_0_2995" x1="157.506" y1="30.8013" x2="176.012" y2="28.441" gradientUnits="userSpaceOnUse">
<stop stop-color="#F1CFBA"/>
<stop offset="1" stop-color="#D388A1"/>
</linearGradient>
<linearGradient id="paint12_linear_0_2995" x1="162.34" y1="30.186" x2="176.917" y2="28.3283" gradientUnits="userSpaceOnUse">
<stop stop-color="#F1CFBA"/>
<stop offset="1" stop-color="#D388A1"/>
</linearGradient>
<linearGradient id="paint13_linear_0_2995" x1="161.852" y1="35.4694" x2="167.707" y2="34.7184" gradientUnits="userSpaceOnUse">
<stop stop-color="#F1CFBA"/>
<stop offset="1" stop-color="#D388A1"/>
</linearGradient>
<linearGradient id="paint14_linear_0_2995" x1="156.543" y1="23.2257" x2="175.05" y2="20.8654" gradientUnits="userSpaceOnUse">
<stop stop-color="#F1CFBA"/>
<stop offset="1" stop-color="#D388A1"/>
</linearGradient>
<linearGradient id="paint15_linear_0_2995" x1="157.667" y1="23.0791" x2="174.977" y2="20.8769" gradientUnits="userSpaceOnUse">
<stop stop-color="#F1CFBA"/>
<stop offset="1" stop-color="#D388A1"/>
</linearGradient>
<linearGradient id="paint16_linear_0_2995" x1="174.974" y1="21.2841" x2="177.526" y2="21.2841" gradientUnits="userSpaceOnUse">
<stop stop-color="#F1CFBA"/>
<stop offset="1" stop-color="#D388A1"/>
</linearGradient>
<linearGradient id="paint17_linear_0_2995" x1="222.834" y1="314.444" x2="249.268" y2="314.444" gradientUnits="userSpaceOnUse">
<stop stop-color="#FF6984"/>
<stop offset="1" stop-color="#252D4D"/>
</linearGradient>
<linearGradient id="paint18_linear_0_2995" x1="222.452" y1="249.066" x2="248.71" y2="249.066" gradientUnits="userSpaceOnUse">
<stop stop-color="#FF6984"/>
<stop offset="1" stop-color="#252D4D"/>
</linearGradient>
<linearGradient id="paint19_linear_0_2995" x1="157.793" y1="273.531" x2="166.911" y2="273.531" gradientUnits="userSpaceOnUse">
<stop stop-color="#FF6984"/>
<stop offset="1" stop-color="#252D4D"/>
</linearGradient>
<linearGradient id="paint20_linear_0_2995" x1="142.149" y1="262.642" x2="252.402" y2="197.237" gradientUnits="userSpaceOnUse">
<stop stop-color="#FF6984"/>
<stop offset="1" stop-color="#252D4D"/>
</linearGradient>
<linearGradient id="paint21_linear_0_2995" x1="200.895" y1="162.734" x2="238.072" y2="162.734" gradientUnits="userSpaceOnUse">
<stop stop-color="#FED1BC"/>
<stop offset="1" stop-color="#EB8AA4"/>
</linearGradient>
<linearGradient id="paint22_linear_0_2995" x1="233.849" y1="125.772" x2="215.342" y2="125.772" gradientUnits="userSpaceOnUse">
<stop stop-color="#FED1BC"/>
<stop offset="1" stop-color="#EB8AA4"/>
</linearGradient>
<linearGradient id="paint23_linear_0_2995" x1="215.344" y1="125.269" x2="231.948" y2="125.269" gradientUnits="userSpaceOnUse">
<stop stop-color="#FED1BC"/>
<stop offset="1" stop-color="#EB8AA4"/>
</linearGradient>
<linearGradient id="paint24_linear_0_2995" x1="227.239" y1="132.754" x2="233.184" y2="132.754" gradientUnits="userSpaceOnUse">
<stop stop-color="#FED1BC"/>
<stop offset="1" stop-color="#EB8AA4"/>
</linearGradient>
<linearGradient id="paint25_linear_0_2995" x1="242.258" y1="120.471" x2="224.198" y2="120.471" gradientUnits="userSpaceOnUse">
<stop stop-color="#FED1BC"/>
<stop offset="1" stop-color="#EB8AA4"/>
</linearGradient>
<linearGradient id="paint26_linear_0_2995" x1="224.204" y1="120.466" x2="241.328" y2="120.466" gradientUnits="userSpaceOnUse">
<stop stop-color="#FED1BC"/>
<stop offset="1" stop-color="#EB8AA4"/>
</linearGradient>
<linearGradient id="paint27_linear_0_2995" x1="221.948" y1="118.038" x2="224.404" y2="118.038" gradientUnits="userSpaceOnUse">
<stop stop-color="#FED1BC"/>
<stop offset="1" stop-color="#EB8AA4"/>
</linearGradient>
<linearGradient id="paint28_linear_0_2995" x1="232.832" y1="173.307" x2="253.924" y2="173.307" gradientUnits="userSpaceOnUse">
<stop offset="0.57" stop-color="#172182"/>
<stop offset="0.63" stop-color="#182688"/>
<stop offset="0.72" stop-color="#1D369B"/>
<stop offset="0.82" stop-color="#244FBB"/>
<stop offset="0.94" stop-color="#2E72E6"/>
<stop offset="1" stop-color="#3486FE"/>
</linearGradient>
<linearGradient id="paint29_linear_0_2995" x1="235.233" y1="156.615" x2="279.574" y2="156.615" gradientUnits="userSpaceOnUse">
<stop offset="0.57" stop-color="#172182"/>
<stop offset="0.63" stop-color="#182688"/>
<stop offset="0.72" stop-color="#1D369B"/>
<stop offset="0.82" stop-color="#244FBB"/>
<stop offset="0.94" stop-color="#2E72E6"/>
<stop offset="1" stop-color="#3486FE"/>
</linearGradient>
<linearGradient id="paint30_linear_0_2995" x1="273.85" y1="158.704" x2="289.889" y2="158.704" gradientUnits="userSpaceOnUse">
<stop stop-color="#FED1BC"/>
<stop offset="1" stop-color="#EB8AA4"/>
</linearGradient>
<linearGradient id="paint31_linear_0_2995" x1="149.402" y1="176.005" x2="229.599" y2="176.389" gradientUnits="userSpaceOnUse">
<stop offset="0.57" stop-color="#172182"/>
<stop offset="0.63" stop-color="#182688"/>
<stop offset="0.72" stop-color="#1D369B"/>
<stop offset="0.82" stop-color="#244FBB"/>
<stop offset="0.94" stop-color="#2E72E6"/>
<stop offset="1" stop-color="#3486FE"/>
</linearGradient>
<linearGradient id="paint32_linear_0_2995" x1="183.179" y1="169.784" x2="265.635" y2="170.174" gradientUnits="userSpaceOnUse">
<stop offset="0.57" stop-color="#172182"/>
<stop offset="0.63" stop-color="#182688"/>
<stop offset="0.72" stop-color="#1D369B"/>
<stop offset="0.82" stop-color="#244FBB"/>
<stop offset="0.94" stop-color="#2E72E6"/>
<stop offset="1" stop-color="#3486FE"/>
</linearGradient>
<linearGradient id="paint33_linear_0_2995" x1="244.441" y1="202.604" x2="263.806" y2="202.604" gradientUnits="userSpaceOnUse">
<stop stop-color="#FED1BC"/>
<stop offset="1" stop-color="#EB8AA4"/>
</linearGradient>
<linearGradient id="paint34_linear_0_2995" x1="250.989" y1="199.606" x2="258.82" y2="199.606" gradientUnits="userSpaceOnUse">
<stop stop-color="#FED1BC"/>
<stop offset="1" stop-color="#EB8AA4"/>
</linearGradient>
<linearGradient id="paint35_linear_0_2995" x1="251.002" y1="203.913" x2="309.91" y2="203.913" gradientUnits="userSpaceOnUse">
<stop offset="0.57" stop-color="#172182"/>
<stop offset="0.63" stop-color="#182688"/>
<stop offset="0.72" stop-color="#1D369B"/>
<stop offset="0.82" stop-color="#244FBB"/>
<stop offset="0.94" stop-color="#2E72E6"/>
<stop offset="1" stop-color="#3486FE"/>
</linearGradient>
<linearGradient id="paint36_linear_0_2995" x1="263.769" y1="198.951" x2="282.767" y2="198.951" gradientUnits="userSpaceOnUse">
<stop offset="0.57" stop-color="#172182"/>
<stop offset="0.63" stop-color="#182688"/>
<stop offset="0.72" stop-color="#1D369B"/>
<stop offset="0.82" stop-color="#244FBB"/>
<stop offset="0.94" stop-color="#2E72E6"/>
<stop offset="1" stop-color="#3486FE"/>
</linearGradient>
<linearGradient id="paint37_linear_0_2995" x1="280.41" y1="193.335" x2="336.173" y2="193.335" gradientUnits="userSpaceOnUse">
<stop offset="0.57" stop-color="#172182"/>
<stop offset="0.63" stop-color="#182688"/>
<stop offset="0.72" stop-color="#1D369B"/>
<stop offset="0.82" stop-color="#244FBB"/>
<stop offset="0.94" stop-color="#2E72E6"/>
<stop offset="1" stop-color="#3486FE"/>
</linearGradient>
<linearGradient id="paint38_linear_0_2995" x1="346.284" y1="123.836" x2="292.307" y2="224.202" gradientUnits="userSpaceOnUse">
<stop offset="0.57" stop-color="#172182"/>
<stop offset="0.63" stop-color="#182688"/>
<stop offset="0.72" stop-color="#1D369B"/>
<stop offset="0.82" stop-color="#244FBB"/>
<stop offset="0.94" stop-color="#2E72E6"/>
<stop offset="1" stop-color="#3486FE"/>
</linearGradient>
<linearGradient id="paint39_linear_0_2995" x1="239.384" y1="56.5494" x2="255.069" y2="74.5634" gradientUnits="userSpaceOnUse">
<stop stop-color="#41D1FF"/>
<stop offset="1" stop-color="#BD34FE"/>
</linearGradient>
<linearGradient id="paint40_linear_0_2995" x1="241.269" y1="59.5362" x2="251.31" y2="73.1684" gradientUnits="userSpaceOnUse">
<stop stop-color="#FFEA83"/>
<stop offset="0.08" stop-color="#FFDD35"/>
<stop offset="1" stop-color="#FFA800"/>
</linearGradient>
<linearGradient id="paint41_linear_0_2995" x1="297.563" y1="67.708" x2="293.297" y2="74.0284" gradientUnits="userSpaceOnUse">
<stop stop-color="#52CE63"/>
<stop offset="1" stop-color="#51A256"/>
</linearGradient>
<linearGradient id="paint42_linear_0_2995" x1="311.893" y1="82.8044" x2="305.573" y2="78.5376" gradientUnits="userSpaceOnUse">
<stop stop-color="#52CE63"/>
<stop offset="1" stop-color="#51A256"/>
</linearGradient>
<linearGradient id="paint43_linear_0_2995" x1="305.937" y1="62.4595" x2="301.191" y2="73.0963" gradientUnits="userSpaceOnUse">
<stop stop-color="#8AE99C"/>
<stop offset="1" stop-color="#52CE63"/>
</linearGradient>
<linearGradient id="paint44_linear_0_2995" x1="298.242" y1="79.2944" x2="288.188" y2="102.651" gradientUnits="userSpaceOnUse">
<stop stop-color="#FFE56C"/>
<stop offset="1" stop-color="#FFC63A"/>
</linearGradient>
<linearGradient id="paint45_linear_0_2995" x1="72.5445" y1="165.86" x2="224.184" y2="166.26" gradientUnits="userSpaceOnUse">
<stop stop-color="#172182"/>
<stop offset="0.14" stop-color="#182688"/>
<stop offset="0.35" stop-color="#1D369B"/>
<stop offset="0.59" stop-color="#244FBB"/>
<stop offset="0.87" stop-color="#2E72E6"/>
<stop offset="1" stop-color="#3486FE"/>
</linearGradient>
<linearGradient id="paint46_linear_0_2995" x1="57.9957" y1="200.412" x2="-11.4414" y2="199.813" gradientUnits="userSpaceOnUse">
<stop stop-color="#172182"/>
<stop offset="0.14" stop-color="#182688"/>
<stop offset="0.35" stop-color="#1D369B"/>
<stop offset="0.59" stop-color="#244FBB"/>
<stop offset="0.87" stop-color="#2E72E6"/>
<stop offset="1" stop-color="#3486FE"/>
</linearGradient>
<linearGradient id="paint47_linear_0_2995" x1="28.0938" y1="191.386" x2="43.7946" y2="191.386" gradientUnits="userSpaceOnUse">
<stop stop-color="#FED1BC"/>
<stop offset="1" stop-color="#EB8AA4"/>
</linearGradient>
<linearGradient id="paint48_linear_0_2995" x1="88.9105" y1="178.578" x2="108.699" y2="178.578" gradientUnits="userSpaceOnUse">
<stop stop-color="#FED1BC"/>
<stop offset="1" stop-color="#EB8AA4"/>
</linearGradient>
<linearGradient id="paint49_linear_0_2995" x1="92.3537" y1="178.583" x2="108.698" y2="178.583" gradientUnits="userSpaceOnUse">
<stop stop-color="#FED1BC"/>
<stop offset="1" stop-color="#EB8AA4"/>
</linearGradient>
<linearGradient id="paint50_linear_0_2995" x1="83.8839" y1="178.911" x2="144.734" y2="178.911" gradientUnits="userSpaceOnUse">
<stop stop-color="#FF6984"/>
<stop offset="1" stop-color="#252D4D"/>
</linearGradient>
<linearGradient id="paint51_linear_0_2995" x1="56.8941" y1="159.413" x2="67.525" y2="159.413" gradientUnits="userSpaceOnUse">
<stop stop-color="#FED1BC"/>
<stop offset="1" stop-color="#EB8AA4"/>
</linearGradient>
<linearGradient id="paint52_linear_0_2995" x1="89.0276" y1="277.763" x2="115.873" y2="277.763" gradientUnits="userSpaceOnUse">
<stop stop-color="#FED1BC"/>
<stop offset="1" stop-color="#EB8AA4"/>
</linearGradient>
<linearGradient id="paint53_linear_0_2995" x1="94.007" y1="294.099" x2="114.072" y2="294.099" gradientUnits="userSpaceOnUse">
<stop stop-color="#FED1BC"/>
<stop offset="1" stop-color="#EB8AA4"/>
</linearGradient>
<linearGradient id="paint54_linear_0_2995" x1="69.8885" y1="267.72" x2="119.921" y2="267.72" gradientUnits="userSpaceOnUse">
<stop stop-color="#FED1BC"/>
<stop offset="1" stop-color="#EB8AA4"/>
</linearGradient>
<linearGradient id="paint55_linear_0_2995" x1="77.9156" y1="267.72" x2="119.92" y2="267.72" gradientUnits="userSpaceOnUse">
<stop stop-color="#FED1BC"/>
<stop offset="1" stop-color="#EB8AA4"/>
</linearGradient>
<linearGradient id="paint56_linear_0_2995" x1="85.3666" y1="167.587" x2="94.4845" y2="167.587" gradientUnits="userSpaceOnUse">
<stop stop-color="#FED1BC"/>
<stop offset="1" stop-color="#EB8AA4"/>
</linearGradient>
<linearGradient id="paint57_linear_0_2995" x1="90.4376" y1="166.368" x2="92.2217" y2="166.368" gradientUnits="userSpaceOnUse">
<stop stop-color="#FED1BC"/>
<stop offset="1" stop-color="#EB8AA4"/>
</linearGradient>
<linearGradient id="paint58_linear_0_2995" x1="85.4969" y1="167.576" x2="94.4849" y2="167.576" gradientUnits="userSpaceOnUse">
<stop stop-color="#FED1BC"/>
<stop offset="1" stop-color="#EB8AA4"/>
</linearGradient>
<linearGradient id="paint59_linear_0_2995" x1="22.0877" y1="164.093" x2="62.3685" y2="118.674" gradientUnits="userSpaceOnUse">
<stop stop-color="#172182"/>
<stop offset="0.14" stop-color="#182688"/>
<stop offset="0.35" stop-color="#1D369B"/>
<stop offset="0.59" stop-color="#244FBB"/>
<stop offset="0.87" stop-color="#2E72E6"/>
<stop offset="1" stop-color="#3486FE"/>
</linearGradient>
</defs>
</svg>
