<svg width="62" height="69" viewBox="0 0 62 69" fill="none" xmlns="http://www.w3.org/2000/svg">
<path d="M18.2324 42.8082C13.4986 19.903 17.9828 4.875 17.9828 4.875C17.9828 4.875 16.7833 14.024 26.2174 28.772C26.0986 47.0551 29.7761 56.5913 29.7761 56.5913L30.531 56.0463L29.7761 56.6896C29.7761 56.6896 24.1808 52.2223 18.2324 42.8082Z" fill="#0A5959"/>
<path d="M40.5312 39.5647C42.7931 41.7954 44.9058 43.3381 46.4309 44.0737C46.4218 44.0707 46.4126 44.0648 46.4035 44.0588C46.4035 44.0588 48.1174 44.6604 48.4188 44.2584C50.5071 42.0962 51.0186 38.0637 49.6273 30.4842C41.6637 26.0348 40.6591 19.1016 40.6591 19.1016C40.6591 19.1016 39.2252 28.7301 40.5312 39.5618V39.5647Z" fill="#0A5959"/>
<path d="M17.9827 4.8749C17.9827 4.8749 11.4315 26.8242 22.5186 58.0922C22.8199 58.9946 22.5186 59.9953 21.7118 60.5969L10.019 68.6142C8.91091 69.4153 7.29747 68.915 6.79518 67.6105C3.66876 59.2954 -4.89767 31.7322 3.76922 1.56613C4.1741 0.362936 5.48312 -0.336939 6.69472 0.163397L17.9827 4.8749Z" fill="url(#paint0_linear_0_3245)"/>
<path d="M40.3562 48.973L29.7745 56.5912C29.7745 56.5912 24.1305 41.9594 27.053 14.1966C27.2539 12.5944 28.9678 11.7903 30.3803 12.5944L40.6606 19.1077C40.6606 19.1077 38.6454 32.6376 41.5678 45.6672C41.8692 46.9687 41.3669 48.2731 40.3593 48.976L40.3562 48.973Z" fill="url(#paint1_linear_0_3245)"/>
<path d="M59.9097 32.0329L50.1316 25.7191C49.5258 25.317 48.6187 25.9186 48.8226 26.6215C51.1423 36.7444 50.8379 41.7537 48.4208 44.2613C48.1194 44.6634 46.4055 44.0618 46.4055 44.0618C48.019 44.8629 48.4208 44.4638 48.4208 44.4638C50.0342 43.2607 56.08 38.9512 59.9097 36.3453C61.4226 35.2434 61.4226 33.0365 59.9097 32.0358V32.0329Z" fill="#4BDFFF"/>
<defs>
<linearGradient id="paint0_linear_0_3245" x1="11.3166" y1="0" x2="11.3166" y2="69" gradientUnits="userSpaceOnUse">
<stop stop-color="#0BD895"/>
<stop offset="1" stop-color="#4BDFFF"/>
</linearGradient>
<linearGradient id="paint1_linear_0_3245" x1="33.934" y1="12.2788" x2="33.934" y2="56.5912" gradientUnits="userSpaceOnUse">
<stop stop-color="#0BD895"/>
<stop offset="1" stop-color="#4BDFFF"/>
</linearGradient>
</defs>
</svg>
