<svg width="269" height="88" viewBox="0 0 269 88" fill="none" xmlns="http://www.w3.org/2000/svg">
<g clip-path="url(#clip0_0_4310)">
<path d="M23.8261 54.595C17.7696 25.3832 23.5067 6.21762 23.5067 6.21762C23.5067 6.21762 21.9721 17.8856 34.0423 36.6942C33.8904 60.0112 38.5953 72.173 38.5953 72.173L39.5612 71.4779L38.5953 72.2983C38.5953 72.2983 31.4366 66.6011 23.8261 54.595Z" fill="#0A5959"/>
<path d="M52.3558 50.4588C55.2496 53.3036 57.9527 55.2711 59.904 56.2092C59.8923 56.2055 59.8806 56.1979 59.8689 56.1903C59.8689 56.1903 62.0617 56.9575 62.4473 56.4447C65.1192 53.6873 65.7735 48.5445 63.9936 38.8782C53.8047 33.2037 52.5194 24.3615 52.5194 24.3615C52.5194 24.3615 50.6849 36.641 52.3558 50.455V50.4588Z" fill="#0A5959"/>
<path d="M23.5066 6.21779C23.5066 6.21779 15.1249 34.2104 29.3099 74.0874C29.6955 75.2383 29.3099 76.5145 28.2778 77.2817L13.3177 87.5064C11.9 88.5281 9.83569 87.89 9.19304 86.2264C5.19304 75.6219 -5.76704 40.4698 5.32157 1.99801C5.83958 0.46355 7.51436 -0.429022 9.06451 0.209072L23.5066 6.21779Z" fill="url(#paint0_linear_0_4310)"/>
<path d="M52.1339 62.4572L38.5954 72.173C38.5954 72.173 31.3744 53.5125 35.1134 18.1059C35.3705 16.0625 37.5633 15.037 39.3705 16.0625L52.5234 24.3691C52.5234 24.3691 49.945 41.6242 53.684 58.2413C54.0696 59.9011 53.427 61.5647 52.1378 62.461L52.1339 62.4572Z" fill="url(#paint1_linear_0_4310)"/>
<path d="M77.1504 40.8532L64.6402 32.8011C63.8651 32.2883 62.7045 33.0556 62.9654 33.9519C65.9333 46.8619 65.5438 53.2505 62.4513 56.4485C62.0657 56.9613 59.8729 56.1941 59.8729 56.1941C61.9372 57.2158 62.4513 56.7068 62.4513 56.7068C64.5156 55.1723 72.2507 49.6764 77.1504 46.353C79.0862 44.9477 79.0862 42.1332 77.1504 40.857V40.8532Z" fill="#4BDFFF"/>
<path d="M122.124 38.4983L132.013 12.4998H126.525L119.569 31.8249L112.613 12.4998H106.934L116.784 38.4983H122.124ZM140.247 38.9731C142.202 38.9731 144.344 38.2401 145.361 36.5537C145.361 37.2867 145.435 38.1299 145.513 38.4983H150.288C150.214 37.8754 150.101 36.6296 150.101 35.2357V20.4608H145.1V30.9476C145.1 33.0366 143.822 34.5027 141.602 34.5027C139.269 34.5027 138.218 32.8884 138.218 30.8716V20.457H133.217V31.8591C133.217 35.7826 135.772 38.9731 140.247 38.9731ZM163.522 39.0453C168.071 39.0453 171.004 36.4435 171.943 33.3252L167.768 32.1136C167.168 33.7278 165.886 34.8635 163.557 34.8635C161.076 34.8635 159.008 33.1391 158.895 30.7577H172.13C172.13 30.6855 172.204 29.9524 172.204 29.2536C172.204 23.4614 168.784 19.9025 163.067 19.9025C158.331 19.9025 153.968 23.6437 153.968 29.3979C153.968 35.4864 158.443 39.0415 163.518 39.0415L163.522 39.0453ZM167.281 27.4229H159.008C159.121 25.7744 160.551 23.8678 163.145 23.8678C166.003 23.8678 167.207 25.6263 167.281 27.4229ZM118.288 77.5474C124.492 77.5474 127.912 73.5138 127.912 69.5181C127.912 65.8528 125.318 62.7725 120.469 61.8533L116.745 61.1583C114.79 60.7899 113.851 59.6542 113.851 58.2261C113.851 56.5017 115.507 54.9255 118.027 54.9255C121.411 54.9255 122.615 57.1626 122.876 58.5907L127.538 57.1968C126.938 54.2646 124.453 50.4512 117.988 50.4512C112.948 50.4512 108.702 53.9721 108.702 58.5907C108.702 62.5142 111.448 65.1919 115.698 66.0351L119.421 66.7682C121.489 67.1708 122.654 68.3444 122.654 69.8485C122.654 71.683 121.111 73.039 118.331 73.039C114.572 73.039 112.73 70.7297 112.504 68.1621L107.69 69.4079C108.103 73.1111 111.222 77.5474 118.292 77.5474H118.288ZM140.134 77.5474C145.061 77.5474 147.955 74.4671 148.78 71.4589L144.383 70.0308C143.97 71.4248 142.693 73.0732 140.134 73.0732C137.575 73.0732 135.398 71.2386 135.398 67.976C135.398 64.7134 137.54 62.9168 140.099 62.9168C142.658 62.9168 143.744 64.4551 144.196 65.9592L148.671 64.4931C147.881 61.4507 145.026 58.4046 139.986 58.4046C134.611 58.4046 130.397 62.4003 130.397 67.976C130.397 73.5517 134.685 77.5474 140.134 77.5474ZM157.466 76.9967V66.3998C157.579 64.4209 158.821 62.8789 160.924 62.8789C163.331 62.8789 164.344 64.4551 164.344 66.4719V76.9967H169.345V65.6287C169.345 61.6672 167.164 58.4806 162.463 58.4806C160.695 58.4806 158.665 59.0655 157.462 60.4594V50.4512H152.461V76.9967H157.462H157.466ZM182.732 77.5474C188.258 77.5474 192.434 73.5138 192.434 67.976C192.434 62.4383 188.258 58.4046 182.732 58.4046C177.205 58.4046 173.03 62.4003 173.03 67.976C173.03 73.5517 177.205 77.5474 182.732 77.5474ZM182.732 73.1111C180.29 73.1111 178.031 71.3526 178.031 67.976C178.031 64.5994 180.286 62.8409 182.732 62.8409C185.178 62.8409 187.433 64.5652 187.433 67.976C187.433 71.3868 185.178 73.1111 182.732 73.1111ZM204.691 77.5474C210.218 77.5474 214.393 73.5138 214.393 67.976C214.393 62.4383 210.218 58.4046 204.691 58.4046C199.164 58.4046 194.989 62.4003 194.989 67.976C194.989 73.5517 199.164 77.5474 204.691 77.5474ZM204.691 73.1111C202.249 73.1111 199.99 71.3526 199.99 67.976C199.99 64.5994 202.245 62.8409 204.691 62.8409C207.137 62.8409 209.392 64.5652 209.392 67.976C209.392 71.3868 207.137 73.1111 204.691 73.1111ZM223.339 76.9967V50.4512H218.338V76.9967H223.339ZM231.612 77.255C233.528 77.255 235.071 75.7509 235.071 73.9202C235.071 72.0894 233.528 70.5854 231.612 70.5854C229.696 70.5854 228.192 72.0894 228.192 73.9202C228.192 75.7509 229.735 77.255 231.612 77.255ZM242.63 56.0231C244.36 56.0231 245.715 54.6672 245.715 53.053C245.715 51.4387 244.36 50.0106 242.63 50.0106C240.901 50.0106 239.546 51.3666 239.546 53.053C239.546 54.7393 240.936 56.0231 242.63 56.0231ZM245.15 76.9967V58.9553H240.149V76.9967H245.15ZM258.798 77.5474C264.325 77.5474 268.5 73.5138 268.5 67.976C268.5 62.4383 264.325 58.4046 258.798 58.4046C253.271 58.4046 249.096 62.4003 249.096 67.976C249.096 73.5517 253.271 77.5474 258.798 77.5474ZM258.798 73.1111C256.356 73.1111 254.097 71.3526 254.097 67.976C254.097 64.5994 256.352 62.8409 258.798 62.8409C261.244 62.8409 263.499 64.5652 263.499 67.976C263.499 71.3868 261.244 73.1111 258.798 73.1111Z" fill="white"/>
</g>
<defs>
<linearGradient id="paint0_linear_0_4310" x1="14.9778" y1="0.000686646" x2="14.9778" y2="87.9984" gradientUnits="userSpaceOnUse">
<stop stop-color="#0BD895"/>
<stop offset="1" stop-color="#4BDFFF"/>
</linearGradient>
<linearGradient id="paint1_linear_0_4310" x1="43.9171" y1="15.66" x2="43.9171" y2="72.173" gradientUnits="userSpaceOnUse">
<stop stop-color="#0BD895"/>
<stop offset="1" stop-color="#4BDFFF"/>
</linearGradient>
<clipPath id="clip0_0_4310">
<rect width="268" height="88" fill="white" transform="translate(0.5)"/>
</clipPath>
</defs>
</svg>
