<svg width="19" height="17" viewBox="0 0 19 17" fill="none" xmlns="http://www.w3.org/2000/svg">
<path d="M9.47378 0.5C9.1238 0.5 8.77724 0.568934 8.4539 0.702866C8.13056 0.836798 7.83677 1.0331 7.58929 1.28058C7.34182 1.52805 7.14551 1.82185 7.01158 2.14519C6.87765 2.46853 6.80871 2.81508 6.80871 3.16506C6.80871 3.51504 6.87765 3.8616 7.01158 4.18494C7.14551 4.50828 7.34182 4.80207 7.58929 5.04955C7.83677 5.29702 8.13056 5.49333 8.4539 5.62726C8.77724 5.76119 9.1238 5.83013 9.47378 5.83013C10.1806 5.83013 10.8585 5.54934 11.3583 5.04955C11.8581 4.54975 12.1388 3.87188 12.1388 3.16506C12.1388 2.45824 11.8581 1.78038 11.3583 1.28058C10.8585 0.780783 10.1806 0.5 9.47378 0.5ZM15.4762 1.8312C14.9455 1.8312 14.4366 2.042 14.0614 2.41722C13.6862 2.79244 13.4754 3.30135 13.4754 3.832C13.4754 4.36264 13.6862 4.87155 14.0614 5.24677C14.4366 5.622 14.9455 5.83279 15.4762 5.83279C16.0068 5.83279 16.5157 5.622 16.891 5.24677C17.2662 4.87155 17.477 4.36264 17.477 3.832C17.477 3.30135 17.2662 2.79244 16.891 2.41722C16.5157 2.042 16.0068 1.8312 15.4762 1.8312ZM3.47138 1.8312C2.94074 1.8312 2.43183 2.042 2.0566 2.41722C1.68138 2.79244 1.47058 3.30135 1.47058 3.832C1.47058 4.36264 1.68138 4.87155 2.0566 5.24677C2.43183 5.622 2.94074 5.83279 3.47138 5.83279C4.00203 5.83279 4.51094 5.622 4.88616 5.24677C5.26138 4.87155 5.47218 4.36264 5.47218 3.832C5.47218 3.30135 5.26138 2.79244 4.88616 2.41722C4.51094 2.042 4.00203 1.8312 3.47138 1.8312ZM5.47218 8.49119C5.47465 8.13905 5.61627 7.80217 5.86615 7.55403C6.11603 7.3059 6.4539 7.16665 6.80605 7.16666H12.1415C12.4953 7.16666 12.8345 7.30719 13.0847 7.55734C13.3348 7.80749 13.4754 8.14676 13.4754 8.50053V12.5021C13.4753 12.9219 13.4096 13.3391 13.2806 13.7386C12.9853 14.6439 12.3769 15.4143 11.5646 15.9113C10.7524 16.4084 9.78957 16.5997 8.84903 16.4507C7.90849 16.3018 7.05185 15.8224 6.43294 15.0987C5.81403 14.375 5.47338 13.4544 5.47218 12.5021V8.49119ZM4.13832 8.50053C4.13832 8.01366 4.2677 7.55882 4.49579 7.16666H1.47058C1.11682 7.16666 0.777547 7.30719 0.527399 7.55734C0.277251 7.80749 0.136719 8.14676 0.136719 8.50053V11.8352C0.136537 12.3811 0.270407 12.9188 0.526571 13.4009C0.782736 13.8831 1.15336 14.2949 1.60589 14.6003C2.05843 14.9058 2.57903 15.0954 3.12199 15.1526C3.66494 15.2098 4.21363 15.1328 4.71988 14.9284C4.33597 14.1769 4.13661 13.3447 4.13832 12.5008V8.50053ZM14.8092 8.50053V12.5021C14.8092 13.3758 14.5998 14.2001 14.2277 14.9284C14.7339 15.1328 15.2826 15.2098 15.8256 15.1526C16.3685 15.0954 16.8891 14.9058 17.3417 14.6003C17.7942 14.2949 18.1648 13.8831 18.421 13.4009C18.6771 12.9188 18.811 12.3811 18.8108 11.8352V8.50053C18.8108 8.14676 18.6703 7.80749 18.4202 7.55734C18.17 7.30719 17.8307 7.16666 17.477 7.16666H14.4518C14.6785 7.55882 14.8092 8.01366 14.8092 8.50053Z" fill="url(#paint0_linear_0_3894)"/>
<defs>
<linearGradient id="paint0_linear_0_3894" x1="0.136719" y1="13.2324" x2="7.50808" y2="13.2324" gradientUnits="userSpaceOnUse">
<stop stop-color="#0CD890"/>
<stop offset="1" stop-color="#01F0FD"/>
</linearGradient>
</defs>
</svg>
