<svg width="18" height="18" viewBox="0 0 18 18" fill="none" xmlns="http://www.w3.org/2000/svg">
<path d="M6.75 6.5925V11.4075C6.75 11.7525 6.9075 12.015 7.2225 12.195C7.5375 12.375 7.845 12.36 8.145 12.15L11.88 9.765C12.165 9.585 12.3075 9.33 12.3075 9C12.3075 8.67 12.165 8.415 11.88 8.235L8.145 5.85C7.845 5.64 7.5375 5.625 7.2225 5.805C6.9075 5.985 6.75 6.2475 6.75 6.5925ZM9 18C7.755 18 6.585 17.7636 5.49 17.2908C4.395 16.8186 3.4425 16.1775 2.6325 15.3675C1.8225 14.5575 1.1814 13.605 0.7092 12.51C0.2364 11.415 0 10.245 0 9C0 7.755 0.2364 6.585 0.7092 5.49C1.1814 4.395 1.8225 3.4425 2.6325 2.6325C3.4425 1.8225 4.395 1.1811 5.49 0.7083C6.585 0.2361 7.755 0 9 0C10.245 0 11.415 0.2361 12.51 0.7083C13.605 1.1811 14.5575 1.8225 15.3675 2.6325C16.1775 3.4425 16.8186 4.395 17.2908 5.49C17.7636 6.585 18 7.755 18 9C18 10.245 17.7636 11.415 17.2908 12.51C16.8186 13.605 16.1775 14.5575 15.3675 15.3675C14.5575 16.1775 13.605 16.8186 12.51 17.2908C11.415 17.7636 10.245 18 9 18Z" fill="#F3F5FF"/>
</svg>
