<svg width="171" height="56" viewBox="0 0 171 56" fill="none" xmlns="http://www.w3.org/2000/svg">
<path d="M15.0465 34.7422C11.2047 16.1528 14.8439 3.95654 14.8439 3.95654C14.8439 3.95654 13.8705 11.3816 21.5269 23.3507C21.4306 38.1888 24.4151 45.9281 24.4151 45.9281L25.0278 45.4858L24.4151 46.0079C24.4151 46.0079 19.8741 42.3824 15.0465 34.7422Z" fill="#0A5959"/>
<path d="M33.1437 32.1103C34.9794 33.9206 36.694 35.1727 37.9317 35.7697C37.9243 35.7673 37.9169 35.7624 37.9095 35.7576C37.9095 35.7576 39.3005 36.2458 39.5451 35.9195C41.2399 34.1648 41.6549 30.8921 40.5259 24.7408C34.0628 21.1298 33.2475 15.5029 33.2475 15.5029C33.2475 15.5029 32.0838 23.3172 33.1437 32.1079V32.1103Z" fill="#0A5959"/>
<path d="M14.8438 3.95683C14.8438 3.95683 9.52703 21.7703 18.525 47.1466C18.7696 47.879 18.525 48.6911 17.8703 49.1793L8.38067 55.6859C7.48137 56.3361 6.17195 55.9301 5.7643 54.8714C3.22698 48.1231 -3.72531 25.7535 3.30851 1.27152C3.6371 0.295038 4.69946 -0.272962 5.68277 0.133097L14.8438 3.95683Z" fill="url(#paint0_linear_0_2978)"/>
<path d="M33.0028 39.7454L24.415 45.9281C24.415 45.9281 19.8345 34.0533 22.2063 11.5218C22.3693 10.2214 23.7603 9.56885 24.9067 10.2214L33.2499 15.5075C33.2499 15.5075 31.6144 26.488 33.9861 37.0625C34.2307 38.1187 33.8231 39.1774 33.0053 39.7478L33.0028 39.7454Z" fill="url(#paint1_linear_0_2978)"/>
<path d="M48.8716 25.9975L40.936 20.8735C40.4444 20.5472 39.7081 21.0354 39.8736 21.6058C41.7563 29.8213 41.5092 33.8867 39.5475 35.9218C39.3029 36.2481 37.912 35.7599 37.912 35.7599C39.2214 36.4101 39.5475 36.0862 39.5475 36.0862C40.8569 35.1097 45.7636 31.6123 48.8716 29.4974C50.0995 28.6031 50.0995 26.8121 48.8716 26V25.9975Z" fill="#4BDFFF"/>
<path d="M77.3996 24.4991L83.6725 7.95459H80.1914L75.7789 20.2524L71.3664 7.95459H67.7643L74.0124 24.4991H77.3996ZM88.8954 24.8012C90.1356 24.8012 91.4945 24.3348 92.1393 23.2616C92.1393 23.7281 92.1862 24.2647 92.2356 24.4991H95.2646C95.2177 24.1027 95.146 23.3099 95.146 22.4229V13.0207H91.9738V19.6941C91.9738 21.0234 91.1634 21.9564 89.7552 21.9564C88.2753 21.9564 87.6082 20.9292 87.6082 19.6457V13.0183H84.4359V20.2742C84.4359 22.7709 86.0567 24.8012 88.8954 24.8012ZM103.66 24.8472C106.545 24.8472 108.406 23.1915 109.001 21.2071L106.353 20.4361C105.972 21.4633 105.159 22.186 103.682 22.186C102.108 22.186 100.796 21.0887 100.725 19.5732H109.12C109.12 19.5273 109.167 19.0608 109.167 18.6161C109.167 14.9301 106.998 12.6654 103.371 12.6654C100.366 12.6654 97.5993 15.0461 97.5993 18.7079C97.5993 22.5824 100.438 24.8447 103.657 24.8447L103.66 24.8472ZM106.044 17.4511H100.796C100.868 16.4021 101.775 15.1887 103.42 15.1887C105.234 15.1887 105.997 16.3078 106.044 17.4511ZM74.9661 49.3485C78.9018 49.3485 81.071 46.7816 81.071 44.2389C81.071 41.9065 79.4255 39.9463 76.3496 39.3614L73.9877 38.9191C72.7475 38.6846 72.1521 37.9619 72.1521 37.0531C72.1521 35.9558 73.2021 34.9527 74.8006 34.9527C76.9475 34.9527 77.711 36.3764 77.8765 37.2852L80.8338 36.3981C80.4533 34.5322 78.8771 32.1055 74.7759 32.1055C71.5789 32.1055 68.8859 34.3461 68.8859 37.2852C68.8859 39.7819 70.6277 41.4859 73.3231 42.0225L75.685 42.489C76.9969 42.7452 77.7357 43.4921 77.7357 44.4492C77.7357 45.6166 76.7573 46.4795 74.9933 46.4795C72.6091 46.4795 71.4405 45.01 71.2973 43.3761L68.2436 44.1688C68.5055 46.5254 70.4844 49.3485 74.9686 49.3485H74.9661ZM88.8237 49.3485C91.9491 49.3485 93.7847 47.3883 94.3085 45.474L91.5192 44.5652C91.2573 45.4523 90.4469 46.5013 88.8237 46.5013C87.2006 46.5013 85.8195 45.3338 85.8195 43.2576C85.8195 41.1814 87.1783 40.0382 88.8015 40.0382C90.4247 40.0382 91.114 41.017 91.4006 41.9742L94.2393 41.0412C93.7378 39.1052 91.9268 37.1667 88.7299 37.1667C85.3204 37.1667 82.6472 39.7094 82.6472 43.2576C82.6472 46.8058 85.3674 49.3485 88.8237 49.3485ZM99.8179 48.9981V42.2546C99.8896 40.9953 100.678 40.014 102.012 40.014C103.539 40.014 104.181 41.017 104.181 42.3005V48.9981H107.353V41.7639C107.353 39.2429 105.97 37.2151 102.988 37.2151C101.866 37.2151 100.579 37.5873 99.8155 38.4743V32.1055H96.6432V48.9981H99.8155H99.8179ZM115.845 49.3485C119.351 49.3485 121.999 46.7816 121.999 43.2576C121.999 39.7336 119.351 37.1667 115.845 37.1667C112.339 37.1667 109.69 39.7094 109.69 43.2576C109.69 46.8058 112.339 49.3485 115.845 49.3485ZM115.845 46.5254C114.296 46.5254 112.863 45.4064 112.863 43.2576C112.863 41.1089 114.293 39.9898 115.845 39.9898C117.396 39.9898 118.827 41.0871 118.827 43.2576C118.827 45.4281 117.396 46.5254 115.845 46.5254ZM129.774 49.3485C133.28 49.3485 135.928 46.7816 135.928 43.2576C135.928 39.7336 133.28 37.1667 129.774 37.1667C126.268 37.1667 123.62 39.7094 123.62 43.2576C123.62 46.8058 126.268 49.3485 129.774 49.3485ZM129.774 46.5254C128.225 46.5254 126.792 45.4064 126.792 43.2576C126.792 41.1089 128.223 39.9898 129.774 39.9898C131.326 39.9898 132.756 41.0871 132.756 43.2576C132.756 45.4281 131.326 46.5254 129.774 46.5254ZM141.603 48.9981V32.1055H138.431V48.9981H141.603ZM146.851 49.1624C148.066 49.1624 149.045 48.2053 149.045 47.0403C149.045 45.8753 148.066 44.9181 146.851 44.9181C145.635 44.9181 144.682 45.8753 144.682 47.0403C144.682 48.2053 145.66 49.1624 146.851 49.1624ZM153.84 35.6513C154.937 35.6513 155.797 34.7884 155.797 33.7611C155.797 32.7339 154.937 31.8251 153.84 31.8251C152.743 31.8251 151.884 32.688 151.884 33.7611C151.884 34.8343 152.766 35.6513 153.84 35.6513ZM155.439 48.9981V37.5172H152.266V48.9981H155.439ZM164.096 49.3485C167.602 49.3485 170.25 46.7816 170.25 43.2576C170.25 39.7336 167.602 37.1667 164.096 37.1667C160.59 37.1667 157.941 39.7094 157.941 43.2576C157.941 46.8058 160.59 49.3485 164.096 49.3485ZM164.096 46.5254C162.547 46.5254 161.114 45.4064 161.114 43.2576C161.114 41.1089 162.544 39.9898 164.096 39.9898C165.647 39.9898 167.078 41.0871 167.078 43.2576C167.078 45.4281 165.647 46.5254 164.096 46.5254Z" fill="white"/>
<defs>
<linearGradient id="paint0_linear_0_2978" x1="9.43374" y1="0.000488281" x2="9.43374" y2="55.9991" gradientUnits="userSpaceOnUse">
<stop stop-color="#0BD895"/>
<stop offset="1" stop-color="#4BDFFF"/>
</linearGradient>
<linearGradient id="paint1_linear_0_2978" x1="27.7907" y1="9.96533" x2="27.7907" y2="45.9281" gradientUnits="userSpaceOnUse">
<stop stop-color="#0BD895"/>
<stop offset="1" stop-color="#4BDFFF"/>
</linearGradient>
</defs>
</svg>
