<svg width="29" height="28" viewBox="0 0 29 28" fill="none" xmlns="http://www.w3.org/2000/svg">
<path d="M14.5 0.339172C12.6615 0.339172 10.841 0.701293 9.14243 1.40486C7.44387 2.10842 5.90053 3.13966 4.6005 4.43968C1.975 7.06519 0.5 10.6261 0.5 14.3392C0.5 20.5272 4.518 25.7772 10.076 27.6392C10.776 27.7512 11 27.3172 11 26.9392V24.5732C7.122 25.4132 6.296 22.6972 6.296 22.6972C5.652 21.0732 4.742 20.6392 4.742 20.6392C3.468 19.7712 4.84 19.7992 4.84 19.7992C6.24 19.8972 6.982 21.2412 6.982 21.2412C8.2 23.3692 10.258 22.7392 11.056 22.4032C11.182 21.4932 11.546 20.8772 11.938 20.5272C8.83 20.1772 5.568 18.9732 5.568 13.6392C5.568 12.0852 6.1 10.8392 7.01 9.84517C6.87 9.49517 6.38 8.03917 7.15 6.14917C7.15 6.14917 8.326 5.77117 11 7.57717C12.106 7.26917 13.31 7.11517 14.5 7.11517C15.69 7.11517 16.894 7.26917 18 7.57717C20.674 5.77117 21.85 6.14917 21.85 6.14917C22.62 8.03917 22.13 9.49517 21.99 9.84517C22.9 10.8392 23.432 12.0852 23.432 13.6392C23.432 18.9872 20.156 20.1632 17.034 20.5132C17.538 20.9472 18 21.8012 18 23.1032V26.9392C18 27.3172 18.224 27.7652 18.938 27.6392C24.496 25.7632 28.5 20.5272 28.5 14.3392C28.5 12.5007 28.1379 10.6802 27.4343 8.9816C26.7307 7.28305 25.6995 5.7397 24.3995 4.43968C23.0995 3.13966 21.5561 2.10842 19.8576 1.40486C18.159 0.701293 16.3385 0.339172 14.5 0.339172Z" fill="#797B88"/>
</svg>
