<svg width="29" height="28" viewBox="0 0 29 28" fill="none" xmlns="http://www.w3.org/2000/svg">
<path d="M7.01822 28.0005H1.21302V9.30584H7.01822V28.0005ZM4.11212 6.75575C2.25605 6.75575 0.75 5.2177 0.75 3.36163C0.75 2.46994 1.10422 1.61477 1.73474 0.984254C2.36526 0.353734 3.22043 -0.000488281 4.11212 -0.000488281C5.00381 -0.000488281 5.85898 0.353734 6.4895 0.984254C7.12002 1.61477 7.47424 2.46994 7.47424 3.36163C7.47424 5.2177 5.96819 6.75575 4.11212 6.75575ZM28.745 28.0005H22.9528V18.9002C22.9528 16.7311 22.9088 13.95 19.9347 13.95C16.9166 13.95 16.4536 16.3061 16.4536 18.7442V28.0005H10.6544V9.30584H16.2216V11.8559H16.3026C17.0776 10.3869 18.9707 8.83683 21.7948 8.83683C27.67 8.83683 28.75 12.706 28.75 17.7311V28.0005H28.745Z" fill="#797B88"/>
</svg>
