<svg width="29" height="24" viewBox="0 0 29 24" fill="none" xmlns="http://www.w3.org/2000/svg">
<path d="M28.25 3.30019C27.2194 3.76864 26.1085 4.07648 24.9575 4.2237C26.1353 3.51434 27.0454 2.39005 27.4737 1.03824C26.3628 1.70745 25.1315 2.1759 23.8332 2.44359C22.7758 1.29254 21.2902 0.623322 19.6037 0.623322C16.4584 0.623322 13.8886 3.19311 13.8886 6.3652C13.8886 6.82026 13.9422 7.26195 14.0359 7.67686C9.27103 7.43594 5.0282 5.14722 2.20411 1.68068C1.70889 2.5239 1.42782 3.51434 1.42782 4.55831C1.42782 6.55258 2.43164 8.31931 3.98423 9.32313C3.03394 9.32313 2.15057 9.05544 1.37428 8.65392V8.69407C1.37428 11.478 3.35516 13.8069 5.97849 14.3289C5.13625 14.5594 4.25204 14.5914 3.39532 14.4226C3.75884 15.5635 4.4708 16.5619 5.43109 17.2773C6.39139 17.9928 7.55175 18.3893 8.74904 18.4111C6.71949 20.0178 4.20372 20.8863 1.6152 20.8738C1.16013 20.8738 0.705067 20.847 0.25 20.7935C2.79302 22.4264 5.81788 23.3767 9.05688 23.3767C19.6037 23.3767 25.3991 14.6233 25.3991 7.03441C25.3991 6.78011 25.3991 6.53919 25.3858 6.28489C26.51 5.48183 27.4737 4.46462 28.25 3.30019Z" fill="#797B88"/>
</svg>
