<svg width="28" height="20" viewBox="0 0 28 20" fill="none" xmlns="http://www.w3.org/2000/svg">
<path d="M11.2 14.2L18.466 10L11.2 5.80001V14.2ZM27.384 3.23801C27.566 3.89601 27.692 4.77801 27.776 5.89801C27.874 7.01801 27.916 7.98401 27.916 8.82401L28 10C28 13.066 27.776 15.32 27.384 16.762C27.034 18.022 26.222 18.834 24.962 19.184C24.304 19.366 23.1 19.492 21.252 19.576C19.432 19.674 17.766 19.716 16.226 19.716L14 19.8C8.134 19.8 4.48 19.576 3.038 19.184C1.778 18.834 0.966 18.022 0.616 16.762C0.434 16.104 0.308 15.222 0.224 14.102C0.126 12.982 0.0839999 12.016 0.0839999 11.176L0 10C0 6.93401 0.224 4.68001 0.616 3.23801C0.966 1.97801 1.778 1.16601 3.038 0.816012C3.696 0.634012 4.9 0.508012 6.748 0.424012C8.568 0.326012 10.234 0.284012 11.774 0.284012L14 0.200012C19.866 0.200012 23.52 0.424012 24.962 0.816012C26.222 1.16601 27.034 1.97801 27.384 3.23801Z" fill="#797B88"/>
</svg>
