<svg width="32" height="32" viewBox="0 0 32 32" fill="none" xmlns="http://www.w3.org/2000/svg">
<path d="M24.512 12.568C24.196 11.8067 23.488 11.3334 22.664 11.3334L18.8547 11.4267L21.1427 6.12537C21.4107 5.50537 21.348 4.79737 20.9773 4.2347C20.6067 3.6707 19.9813 3.33337 19.3067 3.33337H13.3334C12.216 3.33337 11.2894 4.03204 10.9267 5.12404L7.43736 14.0334C7.23069 14.6507 7.33068 15.3067 7.71202 15.8347C8.09335 16.3627 8.68404 16.6667 9.33604 16.6667L13.1013 16.5787L9.25466 27.784C9.15466 28.0774 9.26934 28.4014 9.532 28.5654C9.64134 28.6334 9.76269 28.6667 9.88536 28.6667C10.0574 28.6667 10.228 28.6 10.3574 28.472L24.08 14.748C24.6614 14.1654 24.8267 13.3294 24.512 12.568Z" fill="url(#paint0_linear_0_3844)"/>
<defs>
<linearGradient id="paint0_linear_0_3844" x1="7.33191" y1="23.493" x2="14.1755" y2="23.493" gradientUnits="userSpaceOnUse">
<stop stop-color="#0CD890"/>
<stop offset="1" stop-color="#01F0FD"/>
</linearGradient>
</defs>
</svg>
