<svg width="32" height="32" viewBox="0 0 32 32" fill="none" xmlns="http://www.w3.org/2000/svg">
<path d="M9.61073 26.4747C8.55606 27.5294 4.88404 28.4668 4.1587 28.6441C4.10537 28.6574 4.05339 28.6628 4.00005 28.6628C3.82272 28.6628 3.65073 28.5921 3.52406 28.4627C3.35873 28.2947 3.29605 28.0521 3.35605 27.8241C3.55738 27.0681 4.61206 23.2401 5.66139 22.1908C6.25206 21.6001 7.01873 21.2961 7.7894 21.3041C8.53473 21.3214 9.25072 21.6374 9.80405 22.1908C10.932 23.3201 10.8454 25.2414 9.61073 26.4747ZM22.9441 19.6388L22.6001 21.7334C22.2001 24.2534 20.4667 26.4001 18.0934 27.3468L14.9201 28.6134C14.8401 28.6534 14.7467 28.6667 14.6667 28.6667C14.5201 28.6667 14.36 28.6134 14.24 28.5068C14.0534 28.3601 13.9601 28.1067 14.0134 27.8667L14.8974 23.4187C14.7681 23.4441 14.6454 23.4788 14.5134 23.5014C14.3507 23.5294 14.1867 23.5428 14.0241 23.5428C13.2454 23.5428 12.48 23.2267 11.9067 22.6547L9.34405 20.0907C8.65071 19.3974 8.3347 18.4241 8.49737 17.4841C8.52003 17.3548 8.55471 17.2334 8.57871 17.1054L4.1587 17.9841C4.1187 17.9974 4.0654 17.9974 4.0254 17.9974C3.8254 17.9974 3.63873 17.9174 3.51873 17.7574C3.35873 17.5707 3.31871 17.3041 3.41204 17.0774L4.69207 13.8907C5.6254 11.5307 7.77205 9.79742 10.292 9.39742L12.36 9.05208C15.7747 5.13608 21.1374 2.99609 27.9974 2.99609C28.5494 2.99609 28.9974 3.44409 28.9974 3.99609C29 10.8614 26.8614 16.2241 22.9441 19.6388ZM25.292 12.9268C25.0867 9.58009 22.4187 6.91341 19.072 6.70675C15.2067 8.37208 11.5481 11.6014 10.4681 17.8267C10.4174 18.1214 10.5281 18.4467 10.7587 18.6761L13.3214 21.2401C13.5507 21.4694 13.8774 21.5788 14.1721 21.5294C20.3987 20.4508 23.628 16.7934 25.292 12.9268ZM18.0001 11.0001C16.3427 11.0001 15.0001 12.3427 15.0001 14.0001C15.0001 15.6574 16.3427 17.0001 18.0001 17.0001C19.6574 17.0001 21.0001 15.6574 21.0001 14.0001C21.0001 12.3427 19.6574 11.0001 18.0001 11.0001Z" fill="url(#paint0_linear_0_3778)"/>
<defs>
<linearGradient id="paint0_linear_0_3778" x1="3.33374" y1="23.4241" x2="13.4641" y2="23.4241" gradientUnits="userSpaceOnUse">
<stop stop-color="#0CD890"/>
<stop offset="1" stop-color="#01F0FD"/>
</linearGradient>
</defs>
</svg>
